<svg width="339.177" height="339.177" xmlns="http://www.w3.org/2000/svg">

 <g>
  <title>background</title>
  <rect fill="none" id="canvas_background" height="402" width="582" y="-1" x="-1"/>
 </g>
 <g>
  <title>Layer 1</title>
  <path fill="#ffffff" id="svg_2" d="m247.244,169.59l83.938,-83.938c5.332,-5.327 7.994,-11.798 7.994,-19.414c0,-7.614 -2.669,-14.084 -7.994,-19.414l-38.827,-38.831c-5.329,-5.328 -11.799,-7.993 -19.411,-7.993c-7.617,0 -14.085,2.665 -19.417,7.993l-83.937,83.938l-83.939,-83.938c-5.326,-5.328 -11.797,-7.993 -19.414,-7.993c-7.611,0 -14.083,2.665 -19.414,7.993l-38.829,38.831c-5.327,5.326 -7.994,11.8 -7.994,19.414c0,7.616 2.664,14.084 7.994,19.414l83.937,83.938l-83.937,83.938c-5.327,5.331 -7.994,11.799 -7.994,19.417c0,7.61 2.664,14.082 7.994,19.41l38.83,38.828c5.33,5.332 11.803,7.994 19.414,7.994c7.616,0 14.084,-2.669 19.414,-7.994l83.939,-83.938l83.944,83.938c5.328,5.332 11.793,7.994 19.417,7.994c7.611,0 14.082,-2.669 19.411,-7.994l38.82,-38.828c5.332,-5.324 7.994,-11.8 7.994,-19.41c0,-7.618 -2.662,-14.086 -7.994,-19.417l-83.939,-83.938z"/>
 </g>
</svg>