<svg width="24" height="24" xmlns="http://www.w3.org/2000/svg">

 <g>
  <title>background</title>
  <rect fill="none" id="canvas_background" height="402" width="582" y="-1" x="-1"/>
 </g>
 <g>
  <title>Layer 1</title>
  <path fill="#ffffff" id="svg_2" d="m19,3l-11,0c-1.654,0 -3,1.346 -3,3l0,1l-1,0c-0.553,0 -1,0.448 -1,1s0.447,1 1,1l1,0l0,2l-1,0c-0.553,0 -1,0.448 -1,1s0.447,1 1,1l1,0l0,2l-1,0c-0.553,0 -1,0.448 -1,1s0.447,1 1,1l1,0l0,1c0,1.654 1.346,3 3,3l11,0c1.654,0 3,-1.346 3,-3l0,-12c0,-1.654 -1.346,-3 -3,-3zm-12,3c0,-0.551 0.449,-1 1,-1l0,2l-1,0l0,-1zm0,3l1,0l0,2l-1,0l0,-2zm0,4l1,0l0,2l-1,0l0,-2zm0,5l0,-1l1,0l0,2c-0.551,0 -1,-0.449 -1,-1zm13,0c0,0.551 -0.449,1 -1,1l-10,0l0,-14l10,0c0.551,0 1,0.449 1,1l0,12z"/>
  <circle fill="#ffffff" id="svg_3" r="2" cy="10.5" cx="14"/>
  <path fill="#ffffff" id="svg_4" d="m14,13.356c-1.562,0 -2.5,0.715 -2.5,1.429c0,0.357 0.938,0.715 2.5,0.715c1.466,0 2.5,-0.357 2.5,-0.715c0,-0.714 -0.98,-1.429 -2.5,-1.429z"/>
 </g>
</svg>