<svg width="433.6329999999999" height="433.6329999999999" xmlns="http://www.w3.org/2000/svg">

 <g>
  <title>background</title>
  <rect fill="none" id="canvas_background" height="402" width="582" y="-1" x="-1"/>
 </g>
 <g>
  <title>Layer 1</title>
  <path fill="#ffffff" id="svg_4" d="m388.749,47.038c-0.886,-0.036 -1.773,-0.042 -2.66,-0.017l-33.437,0l0,-28.735c0.001,-11.494 -10.971,-18.286 -22.465,-18.286l-30.824,0c-11.494,0 -19.853,6.792 -19.853,18.286l0,28.734l-125.388,0l0,-28.734c0,-11.494 -8.359,-18.286 -19.853,-18.286l-30.825,0c-11.493,0 -22.465,6.792 -22.465,18.286l0,28.734l-33.436,0c-21.344,-0.595 -39.129,16.226 -39.724,37.569c-0.025,0.886 -0.019,1.774 0.017,2.66l0,301.975c0,22.988 16.718,44.408 39.706,44.408l338.548,0c22.988,0 39.706,-21.42 39.706,-44.408l0,-301.975c0.874,-21.334 -15.713,-39.337 -37.047,-40.211zm-89.386,-26.14l32.392,0l0,57.469l-32.392,0l0,-57.469zm-195.918,0l29.78,0l0,57.469l-29.78,0l0,-57.469zm301.453,368.326c0,11.494 -7.314,23.51 -18.808,23.51l-338.547,0c-11.494,0 -18.808,-12.016 -18.808,-23.51l0,-222.04l376.163,0l0,222.04zm0,-301.975l0,59.037l-376.164,0l0,-59.037c-0.885,-9.77 6.318,-18.408 16.088,-19.293c0.904,-0.082 1.814,-0.094 2.72,-0.037l33.437,0l0,11.494c0,11.494 10.971,19.853 22.465,19.853l30.825,0c10.672,0.293 19.56,-8.122 19.853,-18.794c0.01,-0.353 0.01,-0.706 0,-1.059l0,-11.495l125.388,0l0,11.494c-0.293,10.672 8.122,19.56 18.794,19.853c0.353,0.01 0.706,0.01 1.059,0l30.825,0c11.494,0 22.465,-8.359 22.465,-19.853l0,-11.494l33.437,0c9.791,-0.617 18.228,6.82 18.845,16.611c0.057,0.906 0.045,1.816 -0.037,2.72z"/>
  <path fill="#ffffff" id="svg_5" d="m158.824,309.812l-9.404,52.245c-0.372,2.241 -0.004,4.543 1.049,6.556c2.675,5.113 8.989,7.09 14.102,4.415l47.02,-24.555l47.02,24.555l4.702,1.045c2.267,0.04 4.48,-0.698 6.269,-2.09c3.123,-2.281 4.73,-6.099 4.18,-9.927l-9.404,-52.245l38.139,-36.571c2.729,-2.949 3.719,-7.109 2.612,-10.971c-1.407,-3.57 -4.577,-6.145 -8.359,-6.792l-52.245,-7.837l-23.51,-47.543c-1.025,-2.116 -2.733,-3.825 -4.849,-4.849c-5.194,-2.515 -11.443,-0.344 -13.959,4.849l-23.51,47.543l-52.245,7.837c-3.782,0.646 -6.952,3.222 -8.359,6.792c-1.107,3.862 -0.116,8.022 2.612,10.971l38.139,36.572zm28.735,-42.318c3.281,-0.491 6.061,-2.675 7.314,-5.747l16.718,-33.437l16.718,33.437c1.254,3.072 4.033,5.256 7.314,5.747l37.094,5.224l-26.645,25.6c-2.482,2.457 -3.646,5.949 -3.135,9.404l6.269,37.094l-32.914,-17.763l-4.702,-1.045l-4.702,1.045l-32.914,17.763l6.269,-37.094c0.512,-3.455 -0.653,-6.947 -3.135,-9.404l-26.645,-25.6l37.096,-5.224z"/>
 </g>
</svg>