<svg width="20" height="20" xmlns="http://www.w3.org/2000/svg">

 <g>
  <title>background</title>
  <rect fill="none" id="canvas_background" height="402" width="582" y="-1" x="-1"/>
 </g>
 <g>
  <title>Layer 1</title>
  <path id="svg_1" fill="#ffffff" stroke-width="0px" d="m0,2l0,16l20,0l0,-1l-19,0l0,-15l-1,0zm14.46484,3l-1.06054,1.06055l2.82812,0l-5.83203,5.83203l-3.67773,-1.83985c-0.19226,-0.09572 -0.42418,-0.05799 -0.57618,0.09375l-4,4c-0.4908,0.47126 0.23578,1.19784 0.70704,0.70704l3.74609,-3.7461l3.67773,1.83985c0.19226,0.09573 0.42418,0.05799 0.57618,-0.09375l6.08593,-6.08594l0,2.82812l1.06055,-1.06054l0,-3.53516l-3.53516,0z"/>
 </g>
</svg>