<svg width="460.29799999999994" height="460.297" xmlns="http://www.w3.org/2000/svg">

 <g>
  <title>background</title>
  <rect fill="none" id="canvas_background" height="402" width="582" y="-1" x="-1"/>
 </g>
 <g>
  <title>Layer 1</title>
  <path fill="#ffffff" stroke="#ffffff" id="svg_3" d="m230.149,120.939l-164.163,135.335c0,0.191 -0.048,0.472 -0.144,0.855c-0.094,0.38 -0.144,0.656 -0.144,0.852l0,137.041c0,4.948 1.809,9.236 5.426,12.847c3.616,3.613 7.898,5.431 12.847,5.431l109.63,0l0,-109.636l73.097,0l0,109.64l109.629,0c4.948,0 9.236,-1.814 12.847,-5.435c3.617,-3.607 5.432,-7.898 5.432,-12.847l0,-137.041c0,-0.76 -0.104,-1.334 -0.288,-1.707l-164.169,-135.335z"/>
  <path fill="#ffffff" stroke="#ffffff" id="svg_4" d="m457.122,225.438l-62.522,-51.962l0,-116.487c0,-2.663 -0.856,-4.853 -2.574,-6.567c-1.704,-1.712 -3.894,-2.568 -6.563,-2.568l-54.816,0c-2.666,0 -4.855,0.856 -6.57,2.568c-1.711,1.714 -2.566,3.905 -2.566,6.567l0,55.673l-69.662,-58.245c-6.084,-4.949 -13.318,-7.423 -21.694,-7.423c-8.375,0 -15.608,2.474 -21.698,7.423l-205.285,171.021c-1.903,1.52 -2.946,3.566 -3.14,6.136c-0.193,2.568 0.472,4.811 1.997,6.713l17.701,21.128c1.525,1.712 3.521,2.759 5.996,3.142c2.285,0.192 4.57,-0.476 6.855,-1.998l197.568,-164.742l197.57,164.741c1.526,1.328 3.521,1.991 5.996,1.991l0.858,0c2.471,-0.376 4.463,-1.43 5.996,-3.138l17.703,-21.125c1.522,-1.906 2.189,-4.145 1.991,-6.716c-0.195,-2.563 -1.242,-4.609 -3.141,-6.132z"/>
 </g>
</svg>