<svg width="512.001" height="512.001" xmlns="http://www.w3.org/2000/svg">

 <g>
  <title>background</title>
  <rect fill="none" id="canvas_background" height="402" width="582" y="-1" x="-1"/>
 </g>
 <g>
  <title>Layer 1</title>
  <path fill="#ffffff" id="svg_3" d="m490.08,106.811l-84.814,-84.813c-29.228,-29.228 -76.786,-29.228 -106.012,-0.003l-277.297,277.144c-14.16,14.158 -21.957,32.983 -21.957,53.008c0,20.025 7.797,38.85 21.957,53.008l84.813,84.813c14.159,14.159 32.984,21.957 53.008,21.957s38.85,-7.797 53.005,-21.954l277.295,-277.14c0.001,-0.001 0.002,-0.002 0.003,-0.003c29.227,-29.23 29.227,-76.789 -0.001,-106.017zm-252.63,272.744c-2.887,5.772 -9.148,9.052 -15.531,8.137l-103.895,-14.842l53.008,53.008c5.855,5.855 5.855,15.348 0,21.203c-2.928,2.928 -6.765,4.392 -10.601,4.392s-7.674,-1.463 -10.601,-4.392l-84.813,-84.813c-4.563,-4.563 -5.694,-11.535 -2.809,-17.307c2.887,-5.772 9.145,-9.049 15.531,-8.137l103.896,14.842l-53.008,-53.008c-5.855,-5.855 -5.855,-15.348 0,-21.203c5.854,-5.855 15.348,-5.855 21.203,0l84.813,84.813c4.563,4.564 5.694,11.535 2.807,17.307zm82.004,-80.916l-42.406,42.406c-2.196,2.196 -4.904,3.568 -7.738,4.117c-0.946,0.183 -1.904,0.275 -2.864,0.275c-3.837,0 -7.674,-1.463 -10.601,-4.391l-42.403,-42.403c-0.001,-0.001 -0.003,-0.002 -0.004,-0.003c-0.001,-0.001 -0.002,-0.002 -0.003,-0.004l-42.403,-42.403c-5.855,-5.855 -5.855,-15.348 0,-21.203l42.406,-42.406c5.854,-5.855 15.348,-5.855 21.203,0s5.855,15.348 0,21.203l-31.805,31.805l21.203,21.203l31.805,-31.805c5.854,-5.855 15.347,-5.855 21.203,0c5.854,5.855 5.854,15.348 0,21.203l-31.805,31.805l21.203,21.203l31.805,-31.805c5.854,-5.855 15.348,-5.855 21.203,0c5.858,5.854 5.858,15.348 0.001,21.203zm107.111,-107.236c-3.926,4.894 -10.484,6.826 -16.435,4.842l-35.163,-11.72l11.721,35.162c1.983,5.952 0.052,12.51 -4.843,16.436c-2.725,2.185 -6.046,3.297 -9.384,3.297c-2.659,0 -5.326,-0.706 -7.712,-2.137l-106.015,-63.61c-7.101,-4.26 -9.403,-13.47 -5.143,-20.57c4.261,-7.101 13.471,-9.403 20.57,-5.143l71.262,42.757l-8.387,-25.16c-1.796,-5.387 -0.394,-11.328 3.622,-15.343c4.015,-4.016 9.953,-5.418 15.343,-3.622l25.16,8.386l-42.758,-71.258c-4.261,-7.101 -1.958,-16.31 5.143,-20.57c7.101,-4.262 16.309,-1.957 20.57,5.143l63.61,106.016c3.227,5.379 2.764,12.199 -1.161,17.094z"/>
 </g>
</svg>