<svg width="512" height="512" xmlns="http://www.w3.org/2000/svg">

 <g>
  <title>background</title>
  <rect fill="none" id="canvas_background" height="402" width="582" y="-1" x="-1"/>
 </g>
 <g>
  <title>Layer 1</title>
  <path fill="#ffffff" id="svg_3" d="m451.568,362.581c-15.168,-11.733 -25.131,-75.563 -24.896,-127.915l0,-64c0,-94.122 -76.565,-170.666 -170.666,-170.666s-170.667,76.544 -170.667,170.667l0,64.085c0.235,52.245 -9.685,116.075 -24.875,127.829c-7.829,6.016 -11.52,16.085 -9.408,25.643c2.112,9.536 9.387,16.811 19.264,19.029c26.539,5.611 53.461,9.771 80.512,12.928c7.318,51.755 51.435,91.819 105.174,91.819c53.717,0 97.856,-40.085 105.152,-91.819c27.157,-3.179 54.144,-7.36 80.811,-12.992c9.579,-2.155 16.853,-9.429 18.965,-18.965c2.133,-9.557 -1.558,-19.627 -9.366,-25.643zm-280.896,-170.581c-11.797,0 -21.333,-9.557 -21.333,-21.333c0,-58.816 47.851,-106.667 106.667,-106.667c11.776,0 21.333,9.536 21.333,21.333c0,11.776 -9.557,21.333 -21.333,21.333c-35.307,0 -64,28.693 -64,64c0,11.777 -9.558,21.334 -21.334,21.334zm85.334,277.333c-28.757,0 -53.141,-19.072 -61.184,-44.907c1.728,0.128 3.456,0.064 5.184,0.171c18.624,1.152 37.248,1.92 55.915,1.92c18.517,0 36.992,-0.747 55.467,-1.877c1.899,-0.107 3.797,-0.064 5.696,-0.192c-8.15,25.984 -32.449,44.885 -61.078,44.885z"/>
 </g>
</svg>