<svg width="512.009" height="512.009" xmlns="http://www.w3.org/2000/svg">

 <g>
  <title>background</title>
  <rect fill="none" id="canvas_background" height="402" width="582" y="-1" x="-1"/>
 </g>
 <g>
  <title>Layer 1</title>
  <path fill="#ffffff" id="svg_4" d="m451.613,362.617c-7.379,-5.713 -14.923,-26.642 -19.539,-56.314c-4.081,-26.232 -5.443,-53.051 -5.399,-71.496l0,-64.14c0.001,-94.257 -76.409,-170.667 -170.666,-170.667s-170.667,76.41 -170.667,170.667l0,64c0.044,18.585 -1.318,45.404 -5.399,71.636c-4.616,29.672 -12.16,50.601 -19.501,56.285c-16.458,12.801 -11.972,39.772 9.627,44.618c26.611,5.631 53.421,10.035 80.342,13.221c7.329,51.764 51.814,91.583 105.6,91.583c53.783,0 98.265,-39.814 105.598,-91.572c26.847,-3.177 53.571,-7.566 80.085,-13.175c21.853,-4.904 26.34,-31.875 9.919,-44.646zm-195.602,106.725c-28.645,0 -52.895,-18.825 -61.059,-44.775c40.669,2.771 81.475,2.773 122.116,0.008c-8.167,25.946 -32.415,44.767 -61.057,44.767zm85.31,-89.594c-0.816,-0.014 -1.64,0.014 -2.472,0.095c-55.093,5.37 -110.581,5.37 -165.674,0c-0.806,-0.078 -1.604,-0.108 -2.394,-0.097c-21.625,-2.165 -43.183,-5.152 -64.62,-8.968c7.292,-15.079 12.307,-34.543 15.943,-57.916c4.492,-28.878 5.955,-57.67 5.906,-78.156l0,-64.039c0,-70.693 57.307,-128 128,-128s128,57.307 128,128l0,64c-0.049,20.524 1.413,49.317 5.906,78.195c3.636,23.374 8.651,42.838 15.951,57.922c-21.404,3.814 -42.938,6.8 -64.546,8.964z"/>
  <path fill="#ffffff" id="svg_5" d="m256.009,64c-58.843,0 -106.667,47.823 -106.667,106.667c0,11.782 9.551,21.333 21.333,21.333c11.782,0 21.333,-9.551 21.333,-21.333c0,-35.279 28.721,-64 64,-64c11.782,0 21.333,-9.551 21.333,-21.333s-9.55,-21.334 -21.332,-21.334z"/>
 </g>
</svg>