<svg width="32" height="32" xmlns="http://www.w3.org/2000/svg">

 <metadata>image/svg+xmlOpenclipartRed Coming Soon Stamp2011-02-16T00:18:54Red "Coming Soon" Stamp.https://openclipart.org/detail/118519/red-coming-soon-stamp-by-jhnri4jhnri4coming soonhow i did itredstampstampsstencil</metadata>
 <g>
  <title>background</title>
  <rect fill="none" id="canvas_background" height="34" width="34" y="-1" x="-1"/>
 </g>
 <g>
  <title>Layer 1</title>
  <path stroke="null" fill="#ffffff" d="m1.835297,8.079412c-0.131744,0.038445 -0.252439,0.091031 -0.37411,0.149701c0.043673,-0.003765 0.089399,-0.007682 0.133084,-0.010931c0.152889,-0.011523 0.303252,-0.020512 0.457352,-0.023627c-0.153972,0.009555 -0.300729,0.022989 -0.452708,0.040933c-0.075653,0.00879 -0.149871,0.025286 -0.22538,0.035659c-0.00321,0.00172 -0.009861,-0.004414 -0.01309,-0.002675c0.01223,0.03688 0.012001,0.072235 0.008962,0.102697c0.009555,0.065304 0.017352,0.125287 0.017524,0.180776c0.061239,-0.00923 0.127362,-0.022108 0.189222,-0.032154c0.00321,-0.029974 0.004032,-0.05859 0.007204,-0.088484c0.00923,0.02782 0.025439,0.055582 0.03472,0.083433c0.055781,-0.009326 0.11032,-0.015135 0.166149,-0.025972c0.007797,-0.000113 0.016817,-0.000183 0.024619,-0.000382c0.226755,-0.08289 0.469716,-0.126653 0.726512,-0.126659l9.217172,-0.002962c0.022341,-0.020805 0.040308,-0.04542 0.062622,-0.06624c0.044707,0.006287 0.09032,0.013224 0.135044,0.019457c-0.027367,0.015785 -0.052947,0.030499 -0.080343,0.046257l0.69242,-0.000059c-0.126558,-0.035357 -0.255076,-0.072217 -0.381353,-0.108021c0.073964,-0.033845 0.146074,-0.068204 0.219914,-0.102202c0.274014,0.052043 0.54625,0.106831 0.821086,0.157118c-0.040253,0.017906 -0.074671,0.037656 -0.11495,0.055531l8.450874,-0.00172c0.060721,-0.127563 0.121304,-0.254961 0.18188,-0.382576l-8.834787,-0.000573c0.024984,0.00323 0.044652,0.002847 0.069634,0.006077c-0.015192,0.021754 -0.028579,0.045609 -0.043773,0.067369l-0.101566,-0.00988l0.075705,-0.063563l-1.37175,0.00279c0.027957,0.006039 0.056299,0.008504 0.084262,0.014523c0.034071,0.007357 0.070559,0.014103 0.104658,0.021416l0.008561,0.07808c-0.006822,0.010205 -0.015842,0.02061 -0.022658,0.030801c-0.026471,-0.00751 -0.049364,-0.021617 -0.075816,-0.029144c-0.091574,-0.025985 -0.182119,-0.048934 -0.273593,-0.07507c-0.017887,-0.014256 -0.03641,-0.026828 -0.054289,-0.041095l-8.766757,-0.000191c-0.063813,0.000006 -0.127039,0.002828 -0.189635,0.007529c-0.056211,0.031263 -0.116066,0.064289 -0.17222,0.095606c-0.070274,0.000382 -0.141301,-0.005714 -0.211582,-0.005141c-0.042146,-0.000063 -0.086708,0.003669 -0.128862,0.003612l0.000042,-0.000044zm-0.821544,0.417967c-0.586209,0.454256 -0.963567,1.164773 -0.963567,1.964475l0.001529,2.243859c0.031235,0.026633 0.063847,0.05267 0.095495,0.079513c-0.033108,0.073356 -0.068021,0.151343 -0.098971,0.230539l0.003688,3.405536c0.129883,-0.033606 0.251311,-0.068525 0.380703,-0.102011l0.003038,-2.919004c-0.019654,-0.033702 -0.044256,-0.066614 -0.063977,-0.100324c0.019536,-0.072705 0.044975,-0.148047 0.064361,-0.221271l-0.001968,-2.614586c0,-0.623511 0.27495,-1.176621 0.700943,-1.560305l-0.27967,-0.005446c0.020493,-0.04837 0.041149,-0.101568 0.05829,-0.151631c0.020052,-0.059817 0.032527,-0.120735 0.043247,-0.184697c0.018594,-0.019524 0.039874,-0.042552 0.056855,-0.064694l0.000004,0.000048zm1.828242,-0.421865c0.181393,-0.017657 0.359262,-0.041514 0.540785,-0.058349c0.080129,0.00386 0.159176,0.012211 0.239291,0.016262c-0.101104,0.014103 -0.203977,0.024078 -0.30501,0.038449c-0.160493,-0.001338 -0.314545,0.004223 -0.475067,0.00365l0,-0.000011zm-1.451953,0.487966c-0.00008,0.012918 -0.00172,0.025295 -0.002255,0.037701l0.061493,-0.047388c-0.019717,0.000573 -0.039609,0.009134 -0.059229,0.009689l-0.00001,-0.000002zm0.066542,-0.005465l0.110425,0.01987c0.000955,-0.008103 0.004491,-0.018078 0.005351,-0.026165c-0.039735,0.00172 -0.076412,0.005064 -0.11578,0.006287l0.000004,0.000008zm0.165018,-0.007128c0.001338,0.004204 0.007453,0.005809 0.008867,0.009994c0.009822,-0.004663 0.018919,-0.00321 0.02884,-0.00772c-0.011963,0.000573 -0.025773,-0.002828 -0.0377,-0.002255l-0.000008,-0.000019zm1.912879,-0.47392c0.070784,-0.010873 0.135696,-0.026056 0.206518,-0.036792c0.280358,0.014504 0.560869,0.029477 0.84096,0.046693c-0.351007,-0.007185 -0.696395,-0.00686 -1.047478,-0.009899l0,-0.000002zm2.753514,0.078254c0.010988,0.00386 0.024051,0.011485 0.035022,0.015345c-0.01137,0.002446 -0.024804,0.000955 -0.036156,0.003516l0.001147,-0.018861l-0.000013,0zm-2.542161,1.726005c-0.062731,0.017638 -0.121356,0.03774 -0.181492,0.060996c-0.16917,0.06543 -0.325247,0.148897 -0.470939,0.24984l0.004644,0.017313l-0.099991,0.342101l-0.048519,-0.042641l0.000955,-0.204263c-0.054636,0.044749 -0.108929,0.091293 -0.159856,0.141752c-0.220048,0.218022 -0.382136,0.466238 -0.497253,0.751488c-0.115121,0.28525 -0.176992,0.597369 -0.17699,0.93152c0,0.150601 0.007988,0.297767 0.030528,0.436962l0.299086,-0.475812l0.020921,0.124226l-0.069827,0.154723l-0.01546,-0.057684l0.014332,0.076534l-0.191041,0.440688c0.050327,0.179037 0.122378,0.341433 0.214086,0.499049l0.135428,-0.302124l0.015574,0.150389l0.037812,0.094969l-0.001338,-0.166564l-0.034004,-0.126902l0.183726,-0.444912l0.002465,1.093628l0.093758,0.234533c0.135755,0.122185 0.293964,0.233119 0.466238,0.332566c0.163,0.089653 0.34363,0.163558 0.545333,0.212461c0.152453,0.036958 0.31145,0.049647 0.473232,0.058672l0.005121,-1.503702c-0.136401,-0.036729 -0.261172,-0.102921 -0.356835,-0.201148c-0.152814,-0.15689 -0.230788,-0.367747 -0.230788,-0.6306c-0.000002,-0.232335 0.059116,-0.427025 0.178567,-0.579539l-0.201206,-0.335585l0.208659,-0.513401l0.08912,0.217239l-0.004357,-0.431611l0.107417,-0.245177l0.083049,0.286875l-0.002427,0.544702l0.094748,-0.22322l0.033589,0.102285l-0.002159,-1.161716c-0.204722,0.012364 -0.405641,0.038223 -0.593833,0.091109l-0.000073,-0.000021zm0.643079,-0.091937l-0.002255,1.329824l0.03864,0.144207c0.064864,-0.013472 0.130582,-0.023711 0.203843,-0.023709c0.169111,0.000004 0.332776,0.035546 0.485577,0.10482c0.152811,0.069278 0.301818,0.172 0.448523,0.312596l0.002637,-1.65142c-0.167082,-0.075384 -0.340974,-0.139017 -0.517223,-0.176717c-0.011351,-0.002427 -0.020564,-0.001529 -0.031934,-0.003803l0.140236,0.500291l-0.087958,0.110123l-0.005886,-0.091161l0.038005,-0.065825l-0.044187,0.04275l-0.053297,-0.498858c-0.160774,-0.031252 -0.323928,-0.048263 -0.488978,-0.048269c-0.043811,0.000008 -0.082753,0.013262 -0.12577,0.015154l0.000027,-0.000004zm-0.666335,0.258917l-0.000573,0.136176l0.007319,0.004223l-0.004223,0.007319l-0.003096,-0.011542l-0.034722,-0.083433l0.035328,-0.052743l-0.000032,0zm-0.363982,0.579749l0.116003,0.179121l-0.052936,0.125468l-0.160189,-0.136369l0.013797,-0.040793l0.083322,-0.127427l0.000002,0zm1.825796,-0.223373l0.066462,0.248044l-0.128226,0.213646l-0.02876,-0.24577l0.090524,-0.215901l0,-0.000019zm2.592801,-0.521656c-0.072548,0.021089 -0.144536,0.048372 -0.214563,0.076039c-0.291365,0.115124 -0.551161,0.278275 -0.775299,0.498304c-0.222093,0.215978 -0.384697,0.462512 -0.498801,0.745717c-0.1141,0.283225 -0.178536,0.593623 -0.178536,0.925749s0.065109,0.641436 0.179211,0.922615c0.1141,0.28118 0.274262,0.528937 0.496355,0.744914c0.226163,0.222093 0.487832,0.392245 0.779197,0.508375c0.098577,0.039293 0.19962,0.066586 0.30285,0.09196c0.233138,-0.060507 0.367517,-0.094203 0.595687,-0.15343l0.000573,-0.228877l-0.072837,-0.110314l-0.001529,-0.005771l-0.096737,-0.153369l0.115367,-0.030914l0.057075,0.12072l0.002809,-0.866299c-0.208257,-0.008408 -0.380225,-0.076827 -0.510725,-0.22173c-0.009498,-0.010549 -0.019297,-0.02472 -0.028124,-0.035741l0.0239,0.043056l-0.132256,0.060167l-0.02473,-0.092292l0.094557,-0.062431c-0.03821,-0.056748 -0.062678,-0.113169 -0.085615,-0.18108l-0.058401,0.058925l-0.082634,-0.262242l0.033782,-0.058512l0.084069,0.175312c-0.018976,-0.080694 -0.033392,-0.168664 -0.033398,-0.263083c-0.000002,-0.254694 0.074207,-0.45653 0.212767,-0.613421c0.130515,-0.147789 0.296143,-0.231686 0.5044,-0.240247l0.002446,-1.490631c-0.241145,0.00321 -0.473117,0.035267 -0.690758,0.098533l-0.000103,-0.000004zm-5.022597,1.444692l0.001911,0.630103l-0.063179,-0.39729l0.061271,-0.232794l-0.000004,-0.000019zm5.756791,-1.542514l0.003554,0.728576l0.17305,-0.046368l0.032154,0.189222l-0.149147,0.089424l-0.057188,-0.213417l0.000955,0.741647c0.078676,0.000764 0.151528,0.014065 0.219303,0.033973l-0.075321,-0.258019l0.110316,-0.072835l0.063895,0.353835l-0.015765,0.010396c0.086787,0.03907 0.169713,0.090385 0.236005,0.165513c0.137527,0.155874 0.203079,0.36274 0.203079,0.619478c-0.000002,0.254694 -0.067918,0.46383 -0.205448,0.617644c-0.135663,0.15174 -0.317546,0.222838 -0.539428,0.224921l0.004625,0.963223l0.049764,0.116496l-0.050369,0.019679l-0.001147,0.018842l0.072311,-0.007013l0.018135,0.0446l-0.047279,0.031216l-0.014619,-0.008446l-0.026992,-0.054591l-0.000573,0.136176c0.65443,-0.169872 1.103164,-0.282135 1.712055,-0.440191c0.002503,-0.00172 0.002293,-0.00537 0.004223,-0.007319l-0.534402,-0.079374l0.066735,-0.16626l0.554506,0.15436c0.171576,-0.19339 0.311067,-0.412196 0.407743,-0.64713c0.116133,-0.282193 0.170086,-0.583075 0.170091,-0.911111c-0.000006,-0.330081 -0.058325,-0.640939 -0.173441,-0.924163c-0.115122,-0.283205 -0.283626,-0.531115 -0.503674,-0.749138c-0.226163,-0.220048 -0.480513,-0.389035 -0.771878,-0.504152c-0.288747,-0.114075 -0.602987,-0.168641 -0.935725,-0.169677l-0.000101,-0.000017zm-3.196094,1.177863l0.004147,0.24619l-0.152239,0.077885l-0.020205,-0.167693l0.168301,-0.15638l-0.000004,-0.000002zm-1.596576,0.501992l-0.001529,0.940158l-0.184061,0.166784l0.185628,-1.106928l-0.000038,-0.000013zm-1.07404,0.306328l-0.046035,0.105071l0.020698,-0.061189l0.025338,-0.043882zm14.287734,-3.506817l0.09003,0.012975c-0.020247,0.020619 -0.036616,0.044069 -0.056855,0.064694c-0.040115,-0.006688 -0.089162,-0.014332 -0.129275,-0.021002c0.030272,-0.018976 0.065827,-0.037698 0.096101,-0.056662l0,-0.000006zm-7.300471,2.172579l-0.198989,0.226431l0.002561,-0.105787l0.196428,-0.120639l0,-0.000004zm2.120028,-0.555709l-0.038609,0.202008l0.302621,-0.093454l0.005886,0.091161l-0.344032,0.215825l-0.45116,2.631021l0.124559,0.257197l-0.074988,0.020094l-0.057188,-0.213436l-0.096263,0.563659c0.121996,-0.031665 0.237954,-0.064767 0.357638,-0.095827l0.180667,-0.110234l0.017008,0.063452c0.112655,-0.029236 0.229851,-0.062525 0.340324,-0.091191l0.001147,-0.018842l-0.06748,-0.136479l0.455881,-0.2829l-0.269561,0.078411l-0.001911,0.06232l-0.033478,-0.009574l0.012249,-0.046561l-0.23073,0.061826l-0.192454,-0.418292l0.626568,-0.384277l0.024619,-0.000382l0.004644,0.017313l-0.001529,0.086939l0.032953,-0.10775l0.179646,0.001338l-0.071948,0.631346l-0.073442,0.025861l0.068088,0.000382l-0.040763,0.332413c0.080324,-0.020837 0.174754,-0.047499 0.253815,-0.068006l0.058562,-0.565933c0.01223,-0.136516 0.022544,-0.270249 0.033752,-0.404724c0.010147,-0.121715 0.022177,-0.241967 0.031489,-0.367021l-0.001911,-1.922243l-1.064791,-0.005274l0.000126,-0.000166zm1.163264,0.003612l0.004185,1.88452c0.018345,0.128365 0.039435,0.263637 0.072038,0.407285c0.032595,0.143651 0.072712,0.298455 0.123649,0.461461l0.077996,0.244948l0.247738,0.00172l0.36102,-0.152381l0.011122,-0.027709l0.023488,0.018441l0.0892,-0.036266l-0.046863,0.055833l0.111253,0.06911c0.044333,-0.011485 0.111939,-0.030381 0.155744,-0.041732l0.000082,-0.253509l-0.104354,-0.089506l0.102393,0.059118l-0.000955,-0.141945l-0.006593,-0.047692l-0.018842,-0.001147c-0.007472,-0.073675 -0.02495,-0.153046 -0.038753,-0.236922l-0.073442,0.025861l0.00493,-0.050782l0.070765,-0.012784c-0.005236,-0.030459 -0.011389,-0.056362 -0.017409,-0.088071l-0.046146,0.012364l0.021002,-0.129275c-0.007969,-0.03798 -0.021881,-0.075902 -0.030912,-0.115367l-0.067371,-0.043771l-0.000382,0.321597l-0.178402,0.072533l0.171473,-0.398341l-0.043883,-0.025336l0.040792,0.013797l0.01267,-0.021942l-0.00279,-0.079624l0.02575,-0.019264c-0.006956,-0.027463 -0.008485,-0.054142 -0.015861,-0.082302c-0.024468,-0.09353 -0.055302,-0.190992 -0.084595,-0.292646c-0.020344,-0.069282 -0.031466,-0.121125 -0.041732,-0.155744l-0.321367,-1.1071l-0.586629,0.002618l-0.000008,-0.000048zm1.027241,1.734051l-0.001147,0.018842l0.061189,0.0207c-0.008733,-0.03773 -0.022741,-0.082063 -0.032458,-0.121134l-0.0276,0.081585l0.000015,0.000008zm-0.501648,1.265806l-0.224539,0.084897l0.010816,0.040379c0.176929,-0.045882 0.418693,-0.113674 0.588368,-0.157653l-0.025032,-0.024204l-0.188809,0.056773l-0.160795,-0.000191l-0.00001,0zm-3.218834,-2.06805l0.135377,0.297576l-0.088787,0.060885l-0.166894,-0.276765l0.018441,-0.023488l0.10187,-0.058208l-0.000006,0zm-0.459702,0.314832l-0.000382,0.068088l-0.328457,0.366218l-0.000382,-0.278122l0.240304,-0.095304l0.088787,-0.060885l0.00013,0.000006zm12.113435,-3.153097c-0.06354,0.129044 -0.129086,0.25542 -0.193409,0.385672l0.240419,-0.002599c-0.005867,-0.001949 -0.014542,-0.004949 -0.020396,-0.006899l0.02884,-0.00772l0.003096,0.011542l3.507008,0.006192c0.095176,-0.038183 0.195473,-0.077048 0.290677,-0.114981c0.098818,0.008255 0.197231,0.011084 0.295837,0.01965c-0.013988,0.007625 -0.029073,0.016281 -0.043054,0.0239c0.071453,0.013568 0.145144,0.033522 0.216627,0.047056c0.016702,-0.01525 0.031684,-0.034816 0.048411,-0.050065c0.295608,0.022792 0.59154,0.045624 0.884836,0.07203l1.180577,-0.000955c-0.079775,-0.018116 -0.157261,-0.035812 -0.237017,-0.053954c0.150924,-0.037017 0.300595,-0.077667 0.451466,-0.11479c0.063928,0.019217 0.125392,0.041355 0.189333,0.060553c-0.016511,-0.038007 -0.026068,-0.074029 -0.042448,-0.112275c-0.018307,-0.055072 -0.04019,-0.111228 -0.056358,-0.164188l-4.277511,0.002427c0.286053,0.05564 0.574513,0.109116 0.860337,0.16515c-0.088912,0.037417 -0.17717,0.077132 -0.266064,0.114568c-0.263943,-0.031655 -0.53423,-0.064029 -0.798326,-0.095214c-0.066773,-0.007835 -0.124685,-0.015613 -0.191594,-0.022851c0.014237,-0.005886 0.024575,-0.01074 0.038833,-0.016587c-0.097228,-0.005504 -0.192721,-0.015746 -0.290066,-0.021195l-0.008561,-0.07808c0.149229,0.002809 0.298799,0.006899 0.447778,0.009861c-0.003879,0.009115 -0.001338,0.016989 -0.005351,0.026165c0.07083,-0.028634 0.142168,-0.053226 0.213016,-0.081807l-2.466869,-0.000573l-0.000067,-0.000031zm-7.000831,1.906764l-0.327979,1.083251c-0.074887,0.245254 -0.138415,0.467537 -0.185769,0.668017l0.189083,-0.471073l0.553875,-0.055672l0.005771,-0.001529l0.017313,-0.004644l0.058705,-0.127012l0.040792,0.013797l-0.066431,0.098172l0.173048,-0.04637l-0.01267,0.021942l-0.884472,0.552308l0.173048,-0.046368l0.650761,-0.40931l-0.169321,0.267937l-0.481449,0.141368l0.327349,-0.001147l0.093425,-0.04358l-0.025338,0.043883l-0.068088,-0.000382l-0.094969,0.037812l0.129277,0.021002l-0.026882,0.038116l-0.141228,-0.042531l-0.484832,0.197919c-0.012765,0.060694 -0.022519,0.117148 -0.033257,0.175838l0.007319,0.004223l0.108054,-0.035135l0.054784,-0.187787l0.267822,0.076615l0.169128,-0.107142l-0.064885,0.103941l-0.01267,0.021942l0.01309,0.002675l-0.003249,0.495476l-0.433599,-0.372237l0.002675,-0.013071l-0.101153,0.014734l-0.011542,0.003096c-0.018555,0.101606 -0.033532,0.195301 -0.045814,0.290486l0.006593,0.047692l-0.000955,0.204263l0.228284,0.136671c0.153411,-0.039742 0.414718,-0.106269 0.561079,-0.144156l-0.048521,-0.042639l0.015345,-0.035024l-0.028428,0.032347l-0.082412,-0.076838l0.124115,-0.113628l0.043883,0.025338l-0.057159,0.132782l0.092181,-0.117437l0.058512,0.03378l0.09591,0.104132c0.012937,-0.046834 0.024992,-0.094601 0.036761,-0.13968l-0.152765,-0.039439l0.221233,-0.281849l0.007319,0.004223c0.016874,-0.084157 0.033704,-0.16833 0.045095,-0.247012l0.000044,-1.891839l-0.52586,-0.001338l0.000023,0.00009zm-0.060706,1.988553l-0.015765,0.010396l-0.03563,0.120832l0.05139,-0.131236l0.000006,0.000008zm-0.011447,-0.250413l0.038833,-0.016587l-0.232393,-0.03665l0.193562,0.053238l-0.000002,0zm-5.039605,-0.349784l-0.000573,0.136176l-0.022962,0.098891l-0.306749,0.193466l-0.00237,-0.055005l0.33268,-0.373537l-0.000027,0.00001zm5.73042,-1.387076l0.00279,1.37175l0.055613,-0.138549l0.551639,0.328228l-0.060664,0.096626l-0.548849,-0.248617l-0.002121,0.476615c-0.000382,0.00237 0.001911,0.003421 0.001529,0.005771c0.005809,0.096842 0.018403,0.187271 0.026497,0.283473l0.160078,0.043662l-0.144097,0.131347c0.004988,0.056362 0.009612,0.112409 0.014428,0.169241c0.020144,-0.005217 0.060767,-0.016473 0.080756,-0.021638c0.123101,-0.032572 0.246037,-0.066356 0.369161,-0.098919l0.240438,-0.948509l0.030912,0.115365l0.035408,-0.306252l0.132449,-0.220965l0.066047,0.223411l-0.41296,1.112202c0.292455,-0.077337 0.58575,-0.15188 0.878319,-0.229163l-0.340305,-2.146781l-0.179646,-0.001338l-0.045701,0.383187l-0.08611,0.047803l0.001338,-0.43314l-0.827048,0.005217l0.000099,-0.000027zm-9.894801,2.68835c-0.189493,0.144664 -0.366294,0.254082 -0.526242,0.320297c-0.15995,0.066221 -0.312787,0.100572 -0.467652,0.100574c-0.077129,0.000002 -0.148465,-0.008274 -0.216207,-0.022437l-0.000955,1.496383c0.036542,0.001338 0.070324,0.008332 0.107333,0.008332c0.175226,-0.000002 0.348255,-0.01804 0.523491,-0.053713c0.175224,-0.035655 0.349268,-0.093951 0.524503,-0.165268l0.055686,-1.684174l0.000044,0.000006zm6.420088,-1.720253l0.000955,0.141943l-0.369161,0.098919l-0.001529,-0.005771l0.369772,-0.235087l-0.000038,-0.000004zm-4.417011,1.189711l0.011542,-0.003096l0.025861,0.073442l-0.017313,0.004644l-0.020092,-0.074988l0.000002,-0.000002zm2.100536,-0.420661l-0.015345,0.035024l-0.050369,0.019679l-0.081474,0.065109l0.118457,-0.019377l-0.013797,0.040793l-0.136176,-0.000573l-0.091465,0.073968l-0.001338,-0.073855l0.092707,-0.000113l0.031518,-0.020809l-0.121547,0.007835l0.001147,-0.018842l0.201894,-0.054096l0.065714,-0.054703l0.000075,-0.00004zm0.737213,-0.178987l0.03461,-0.009268l0.03461,-0.009268l0.082523,0.169545l0.025034,0.024204l-0.011542,0.003096l-0.013491,-0.027294l-0.120527,-0.10372l-0.031216,-0.047277l0,-0.000017zm1.217115,-0.326126l0.154311,0.045208l0.205697,-0.08603l0.004644,0.017313l0.027822,0.103829l-0.037287,0.022356l0.040792,0.013797l0.07027,0.216111l-0.360007,0.040822l-0.032043,-0.096515l0.280989,-0.17421l-0.200862,-0.057461l-0.128035,0.052854l-0.026276,-0.098061l-0.000013,-0.000013zm-2.028301,0.759858l-0.055917,0.206633l-0.138023,0.061715l0.000382,-0.06809l0.023073,-0.006192l0.170565,-0.194078l-0.00008,0.000011zm5.579453,-1.488835l0.000382,0.024619l-0.458556,0.295971l0.080534,-0.207053l0.377607,-0.113548l0.000032,0.000011zm-4.560716,1.252964l0.062017,0.069938l-0.057683,0.01546l-0.03163,-0.071896l0.027296,-0.013491l0,-0.00001zm7.071346,-1.75874l-0.004682,1.874526l0.066431,-0.098172l-0.030386,0.001968l0.009173,-0.058097l0.085392,-0.004338l0.04151,-0.02967l-0.124639,-0.003707l0.02666,-0.223526l0.084979,-0.028953l0.057188,0.213417l0.02575,-0.019264l0.057461,-0.200862l-0.098587,-0.09105l0.05829,-0.151631l0.125881,0.077553l0.120194,-0.174403l-0.083624,0.195511l0.023486,0.018441l-0.051086,0.063148l-0.04645,0.080454l-0.022022,0.240839l-0.073857,0.001147l-0.002675,0.01309l0.066544,-0.005465l0.003096,0.011542l-0.080756,0.02164l-0.003096,-0.011542l-0.077857,0.193963c0.182897,-0.048263 0.366638,-0.092829 0.549537,-0.141064l-0.095495,-0.079513l-0.068088,-0.000382l0.072391,-0.260503l-0.033174,-0.077666l0.143491,0.004835l0.156764,-0.153288l-0.071373,0.148956l0.124641,0.003707l-0.117104,0.185937l0.045953,0.148431l-0.0377,-0.002255l0.035437,0.039964c0.127058,-0.033503 0.253662,-0.068522 0.380703,-0.102011l0.080838,-0.275141l0.310055,0.003478l0.004777,-0.835915l-0.098445,0.347873l-0.020174,0.178513l-0.044185,0.042752l0.064359,-0.221271l0.039217,-0.338184l0.058401,-0.058925l-0.000573,-0.463524l-1.632559,-0.001529l-0.000011,0.000168zm-1.729961,0.581011l0.006172,0.023073l-0.004223,0.007319l-0.001949,-0.030386l0,-0.000006zm-3.375534,0.923036l0.037701,0.002255l0.003096,0.011542l-0.039247,-0.008026l-0.001529,-0.005771l-0.000021,0zm11.763154,-3.145644c0.208104,0.021951 0.409406,0.040883 0.616708,0.063503c0.008867,0.007281 0.023549,0.021141 0.032347,0.028428c-0.222226,-0.005351 -0.447816,-0.0073 -0.670884,-0.011886c0.006077,-0.024588 0.015727,-0.055445 0.021831,-0.080039l-0.000002,-0.000006zm-9.661472,2.61344l0.311297,0.077333l0.051501,-0.038529l0.008561,0.078078l-0.06036,0.028538l-0.026467,0.062733l-0.307895,-0.133882l0.023375,-0.074272l-0.000011,0zm3.800915,-0.950477l0.005771,-0.001529l0.001911,0.283893l-0.004223,0.007319l0.000955,0.141945l-0.1444,0.199429l-0.093808,0.365167l-0.027933,-0.196543l0.12174,-0.168633l0.036349,-0.164299l0.107112,-0.17708l-0.287677,0.380015l-0.024011,-0.135761l0.308258,-0.533924l-0.000044,0.000002zm-10.53746,2.897601l0.117244,0.252974l-0.082605,0.083958l0.109598,-0.029366l0.063259,0.143793l-0.143378,0.087878l-0.123729,-0.207971l-0.08109,-0.25649l0.119588,-0.038227l0.021114,-0.036568l0,0.000019zm5.659141,-1.398924l0.001968,0.030388l-0.036156,0.003497l0.001147,-0.018842l0.033064,-0.015039l-0.000023,-0.000004zm12.691694,-3.394644c0.041436,0.008217 0.082114,0.014256 0.123508,0.022548c-0.039364,0.0204 -0.079844,0.042397 -0.119176,0.062846c-0.008198,-0.000955 -0.01632,0.001338 -0.024617,0.000382c-0.057304,-0.002255 -0.118069,-0.006497 -0.175423,-0.008638c0.063465,-0.025552 0.132184,-0.05176 0.195702,-0.077169l0.000006,0.000031zm0.216627,0.047056c0.289416,0.058386 0.584259,0.118763 0.870733,0.180909c0.032593,0.004548 0.063245,0.006822 0.095797,0.011428c-0.007969,0.002026 -0.02094,0.005618 -0.02884,0.00772c-0.024587,-0.006631 -0.042336,-0.012555 -0.066956,-0.019154c-0.309653,-0.043236 -0.623969,-0.087324 -0.936451,-0.126206c0.023075,-0.019242 0.042611,-0.035489 0.065714,-0.054703l0.000004,0.000006zm-17.115585,4.604668l0.003306,0.196944l-0.507381,0.321425l-0.02473,-0.092294l0.528803,-0.426089l0.000002,0.000013zm3.164181,-0.742755l-0.022135,0.148127l-0.180665,0.110232l0.016473,-0.053874l0.186323,-0.204493l0.000004,0.000008zm7.621514,-2.035945l0.001147,1.273278c0.206614,-0.423337 0.412846,-0.847782 0.617415,-1.272093l-0.618561,-0.001147l0,-0.000038zm-2.447568,0.717664l0.105789,0.002561l-0.005351,0.026165l-0.096515,0.032043l-0.003917,-0.060773l-0.000006,0.000004zm-4.131322,1.125503l0.001987,0.376594l-0.25607,0.105709l0.110699,-0.394424l0.14338,-0.087878l0.000004,-0.000002zm7.290152,-1.842097c-0.209824,0.420241 -0.410266,0.831921 -0.630505,1.269418c0.038508,-0.010128 0.076859,-0.020776 0.115367,-0.030912l0.149338,-0.250222l-0.015345,0.035024l-0.133993,0.215194c0.425515,-0.112013 0.850782,-0.22387 1.276336,-0.335814l-0.000764,-0.902455l-0.760508,-0.000191l0.000075,-0.000042zm-8.362014,2.271568l-0.002255,0.037701l-0.185001,0.024841l0.004223,-0.007319l0.18304,-0.055227l-0.000008,0.000004zm-4.293754,1.280349l0.052441,0.103416l-0.101455,0.082825l-0.099416,-0.140286l0.148431,-0.045955zm20.349898,-5.459635c0.020207,0.051787 0.044354,0.101813 0.066351,0.155329c0.023941,0.044312 0.047447,0.085302 0.071703,0.129166c0.109231,0.0328 0.219761,0.064568 0.329011,0.097314l0.383913,0.002236c0.287218,-0.000002 0.561519,0.057157 0.809543,0.16021c0.00193,-0.000573 0.003841,-0.000955 0.005771,-0.001529c0.178802,-0.047293 0.357657,-0.096408 0.536447,-0.143741c-0.182545,-0.118279 -0.382729,-0.212175 -0.594273,-0.279727c-0.201397,-0.019129 -0.400711,-0.035716 -0.602089,-0.055057c0.009077,0.050146 0.023232,0.095749 0.032871,0.145751c-0.015632,-0.050937 -0.032769,-0.102917 -0.047499,-0.154198c-0.111646,-0.01074 -0.223449,-0.016893 -0.335088,-0.02768c0.039989,-0.009727 0.075405,-0.021154 0.115365,-0.030912l-0.772031,0.002847l0.000004,-0.00001zm-6.890759,1.902006l-0.002389,0.890912c0.169459,-0.044577 0.339694,-0.085673 0.509158,-0.130246l-0.450205,-0.757278l-0.056551,-0.003402l-0.000013,0.000013zm-0.725251,0.200518l-0.068887,0.296659l-0.136479,0.067482l0.205372,-0.364154l-0.000006,0.000013zm-7.254608,1.974794l0.186545,-0.019071l-0.001911,0.062319l-0.223411,0.066047l0.038722,-0.109294l0.000055,0zm-0.12072,0.057077l0.001338,0.073857l-0.126902,0.034002l-0.049238,0.000764l-0.106093,0.065521l0.026469,-0.062733l0.079624,-0.00279l0.174898,-0.108688l-0.000096,0.000067zm4.234323,-1.109852l0.067371,0.043773l-0.093727,0.111667l-0.039662,-0.032649l0.008446,-0.014619l0.057572,-0.108163l0,-0.00001zm-6.383589,1.74137l0.104687,0.367632l-0.211888,0.062955l-0.051944,-0.332298l0.159138,-0.098283l0.000008,-0.000006zm7.178551,-1.843109l-0.039135,0.084677l-0.101455,0.082827l0.031407,-0.113517l0.109183,-0.053987zm-9.618475,2.589553l0.059229,-0.009689l0.328801,-0.088099l-0.002637,0.3593l-0.000573,0.228877l-0.270402,0.029175l-0.141782,-0.506063l0.023073,-0.006192l0.004223,-0.007319l0.000069,0.00001zm9.473433,-2.507572l0.000111,0.092707l-0.186019,0.136397l-0.015154,-0.12577l0.201072,-0.103334l-0.00001,0zm-2.03843,0.583304l0.079624,-0.00279l0.033287,0.170372l-0.11269,0.017829l-0.000191,-0.185414l-0.000031,0.000002zm-1.286636,0.412769l0.132367,0.03254l-0.234017,0.211086l-0.0207,0.061189l-0.033478,-0.009574l0.054178,-0.051611l0.101648,-0.243629l0.000002,0zm-5.584804,1.514996l0.026165,0.005351l0.035246,0.200766l-0.110427,-0.019872l0.049016,-0.186241l0,-0.000004zm13.529653,-3.612876l-0.002847,0.520089c0.516114,-0.13573 1.032878,-0.266924 1.548992,-0.402679l-0.000573,-0.117326l-1.545629,-0.000073l0.000057,-0.000011zm-9.850658,2.645735l0.228877,0.000573l0.130408,0.002159l-0.086525,0.023184l0.035024,0.015345l-0.016893,0.029257l-0.041206,-0.038418l-0.27688,0.074188l0.027185,-0.106202l0.00001,-0.000086zm3.189023,-0.650455l0.097345,0.017199l0.043469,0.000764l-0.004223,0.007319l-0.039246,-0.008026l-0.098476,0.00172l0.001147,-0.018842l-0.000015,-0.000134zm-2.237552,0.717014l-0.003287,0.149258c0.037048,-0.009593 0.096009,-0.02605 0.132671,-0.03555l-0.129388,-0.113708l0.000004,0zm5.111075,-1.344786l-0.112881,0.178626c0.036572,-0.009631 0.073024,-0.019733 0.109598,-0.029368l0.003287,-0.149258l-0.000004,0zm-19.300777,5.220764l-0.00172,0.847438c0.12733,-0.00879 0.254694,-0.019253 0.381945,-0.028154l0.000382,-0.921297c-0.129659,0.033539 -0.250566,0.068353 -0.380703,0.102011l0.000096,0.000002zm7.913701,-2.052571c0.126497,0.025387 0.256528,0.043167 0.390506,0.049926l-0.077473,-0.12762c-0.120716,0.031311 -0.19095,0.046031 -0.313036,0.077694l0.000002,0zm0.336101,-0.083876l0.14865,0.139459c0.002981,-0.000008 0.01009,0.002637 0.01309,0.002675l-0.000191,-0.185414c-0.062156,0.016129 -0.09898,0.027057 -0.161511,0.043278l-0.000038,0.000002zm0.213417,-0.057188l-0.002465,0.198492c0.084618,-0.000191 0.167265,-0.00795 0.248865,-0.017218l-0.052441,-0.103416l0.093121,0.024508l0.067784,0.068392c0.195244,-0.027101 0.385882,-0.073817 0.566831,-0.145702c0.267459,-0.106244 0.504075,-0.259376 0.713804,-0.450931c-0.58531,0.151834 -1.008494,0.263236 -1.635521,0.425878l0.000021,-0.000004zm2.596241,-0.670903l-0.12643,0.751049l0.728576,-0.003554l0.047885,-0.167391l-0.232087,-0.104738l-0.043389,-0.254216l0.004223,-0.007319l0.036156,-0.003497l-0.040379,0.010816l0.07427,0.023377l0.19811,0.324043l0.029144,-0.075816l-0.104878,-0.206824l0.146994,0.040985l0.053654,-0.168937l0.046559,0.012249l0.020285,-0.085808l0.068999,-0.203958l-0.000573,-0.117326c-0.106886,0.027717 -0.219857,0.059846 -0.328801,0.088099l0.075321,0.258019l-0.156159,0.017103l-0.111062,-0.229909c-0.021246,0.005504 -0.042129,0.011466 -0.06345,0.017008l0.032154,0.189222l0.028124,0.035741l-0.023073,0.006192l-0.005045,-0.041923l-0.079019,-0.133387l-0.010816,-0.040379c-0.089445,0.023199 -0.174617,0.047566 -0.265338,0.071098l0.000044,-0.000017zm0.907691,-0.119565l-0.027075,0.198913l-0.03461,0.009268l0.036156,-0.003497l-0.011428,0.095797l0.035024,0.015345l-0.000573,-0.117324l0.378869,-0.039691l-0.008026,0.039246l0.035548,0.132671l-0.160795,-0.000191l-0.016587,-0.038833l-0.013797,0.040792l-0.149258,-0.003287l0.053874,0.016473l0.000191,0.185414l0.039247,0.008026l-0.094637,0.31594l-0.021942,-0.01267l-0.005351,0.026165l0.028842,-0.00772l0.001529,0.005771l0.476615,0.002121l0.12248,-1.158027c-0.077406,0.020069 -0.169407,0.046073 -0.248044,0.066462l-0.035408,0.306252l-0.384926,0.109325l0.003994,-0.192721l0.000088,-0.000017zm1.225446,-0.433465l0.041317,0.131125l0.321597,0.000382l-0.031105,0.045429l-0.258019,0.075321l0.066047,0.223411l0.001529,0.005771l0.210092,0.69179l0.14545,0.035215l-0.024506,0.093121l0.068088,0.000382l0.029144,-0.075816l0.115063,0.037176l-0.032651,0.03966l0.111557,0.000955l0.133995,-0.215194l0.002866,-0.173877l-0.162423,0.247547l-0.100131,-0.096817l0.098556,-0.255152l0.1505,0.07714l-0.11672,-0.135652l0.08898,-0.221672l-0.139046,0.173271l-0.044296,-0.049955l0.015345,-0.035024l-0.024206,0.025032l-0.225704,-0.242464l0.043773,-0.067371l-0.000382,-0.024619l0.37455,0.221118l0.038114,0.026882l0.001911,-0.408527l-0.291958,-0.305086c-0.17433,0.04517 -0.425114,0.109317 -0.60721,0.15652l-0.000117,-0.000023zm0.803333,-0.209079l0.096626,0.060664l0.001529,-0.086939c-0.027594,0.007147 -0.070257,0.019071 -0.098061,0.026276l-0.000094,0zm0.190353,-0.051006l0.001338,0.166564l0.103941,0.064887l-0.021114,0.036568l-0.005771,0.001529l-0.077857,0.193963l-0.000191,0.414298l0.064281,0.032236l-0.063341,0.109709l0.002905,0.172331l-0.004223,0.007319l-0.000764,0.296964l0.139875,-0.124031l0.273975,-0.246515l0.14051,0.085999l0.079292,-0.280912l0.009994,-0.008867l0.322227,-1.081703c0.010224,-0.034076 0.013988,-0.065284 0.022962,-0.098889c-0.007415,0.001911 -0.021412,0.005809 -0.028842,0.00772l-0.078382,0.076643l-0.048519,-0.042641c-0.141293,0.036574 -0.395761,0.10119 -0.543766,0.13952l0.008867,0.009994l-0.014218,0.016167l-0.045317,0.061602l-0.064694,-0.056855c-0.047681,0.012345 -0.124706,0.033847 -0.17305,0.046368l-0.000118,0.000032zm1.318262,-0.340859c0.003631,0.042739 0.005561,0.084656 0.009383,0.127316l0.051338,0.468474l0.079928,-0.070876l0.119395,0.122569l-0.047994,0.074684l-0.15133,-0.126378l0.038145,0.373097l0.229316,0.37132l-0.116689,0.21055l0.222284,-0.047195l-0.003058,0.334668l-0.228055,0.048741l-0.001147,0.018861l1.576014,-0.001911l-0.031023,-0.208066l-0.031934,-0.003803l-0.037398,-0.07035l-0.047994,0.074684l-0.192721,-0.003994l-0.024426,-0.16038l0.002675,-0.01309l-0.013912,-0.051915l-0.056167,-0.324979l0.02884,-0.00772l0.11487,0.197976l0.026469,-0.062733l0.15729,-0.035964l-0.184483,-1.149963l-0.172331,0.002905l0.114538,-0.08015l0.046561,0.012249l-0.035661,-0.22538l-0.007319,-0.004223l0.008446,-0.014619l-0.021336,-0.148845c-0.277071,0.073064 -0.475392,0.122753 -0.907175,0.236884l-0.078988,0.212825l-0.00172,-0.191173c-0.186228,0.04924 -0.150236,0.041009 -0.374932,0.100465c-0.014294,0.003707 -0.04331,0.011733 -0.057683,0.01546l-0.000019,-0.000021zm1.677199,1.621705l0.047996,-0.074684l-0.027518,-0.171918l-0.129166,0.071705l0.108688,0.174898zm0.602815,-2.226469l-0.096101,0.056662l-0.02575,0.019264l-0.001529,0.086938l0.087767,0.050673l-0.006899,0.020396l0.021942,0.01267l-0.099193,0.045126l-0.002045,0.223125l0.056137,-0.021223l0.000955,0.234648l-0.054593,0.026992l-0.004281,0.607019l0.053045,-0.032762l0.003497,0.036156l0.021112,-0.036568l0.008446,-0.014619l0.057268,-0.040075l-0.019759,0.203136l-0.044602,0.018135l0.039247,0.008026l-0.014103,0.108881l-0.015765,0.010396l-0.032458,-0.121132l0.001529,-0.086939l-0.031821,0.088898l-0.024508,0.093121l0.003382,0.889364l0.195301,-0.101788l-0.03563,0.120831l0.315826,0.00193l0.108356,-0.103223l-0.027185,0.106204l0.104243,-0.00321l0.080534,-0.207053l-0.25928,0.001529l-0.062319,-0.001911l-0.018441,0.023488l-0.174483,0.133307l0.05448,-0.119699l0.070352,-0.037398l-0.073857,0.001147l-0.010816,-0.040379l-0.026882,0.038116l-0.215806,0.002179l0.019759,-0.203136l0.193562,0.05324l0.029366,0.109596l0.050673,-0.087767l0.109294,0.038722l-0.022246,0.05542l0.021529,-0.011944l0.006478,-0.045015l0.066958,0.019154l0.005771,-0.001529l0.23589,0.072806l0.013797,-0.040793l0.452269,-0.411756l-0.251808,0.444606l-0.128226,0.213646l0.081168,0.002981c0.042028,-0.083047 0.082705,-0.166703 0.124721,-0.249802c0.201817,-0.399163 0.40094,-0.799071 0.599815,-1.199362l-0.000382,-1.316752l-0.013797,0.040792l-0.043054,0.023902l-0.029863,0.119285l0.054178,-0.051611l-0.087736,0.295531l-0.00321,-0.104243l0.036761,-0.139682l-0.144097,0.131347l0.017504,-0.165431l0.156462,-0.085201l0.044378,-0.203556c-0.043658,0.011523 -0.097368,0.026262 -0.138438,0.037094l-0.04645,0.080454l-0.211582,-0.005141l-0.001529,-0.005771c-0.086481,0.022788 -0.244604,0.065904 -0.32303,0.086553l0.017715,0.019981l-0.079926,0.070876l-0.021529,0.011944l-0.072007,-0.061076c-0.143804,0.037849 -0.470557,0.120582 -0.612981,0.158066c-0.002694,0.000764 -0.008848,0.002389 -0.011542,0.003096l0.000069,0.000103zm-0.066009,1.414919l0.020285,-0.085806l-0.022244,0.05542l0.001949,0.030386l0.00001,0zm2.497635,-2.054099c-0.016262,0.032282 -0.037042,0.068491 -0.053348,0.100849l0.001338,2.151177l0.605777,-0.069582l-0.037591,0.090444l-0.141914,0.347146l-0.265223,0.163804l0.050975,-0.155855l0.140896,-0.235584l-0.353911,0.317393l0.000141,0.438911l0.073855,-0.001338l0.076615,-0.267822l0.043883,0.025336l-0.033559,0.243916l1.063243,-0.000573l0.205697,-0.086028l-0.021831,0.080039l-0.017313,0.004644l0.166562,-0.001338l-0.005389,-1.612169c-0.000013,-0.142623 -0.002714,-0.271472 -0.010854,-0.386589c-0.007243,-0.102313 -0.01437,-0.199008 -0.028043,-0.289244l-0.041925,0.005045l0.00237,-1.237122c-1.045471,0.276364 -0.227099,0.058865 -1.420537,0.374454l0.000088,0.000086zm1.466687,-0.386818l-0.00237,1.237122l1.364125,2.299086l0.041925,-0.005045l-0.001911,-2.175637l-0.084069,-0.175312l-0.787089,-1.322352c-0.369447,0.097649 -0.141444,0.039305 -0.530676,0.142197l0.000065,-0.000059zm1.403243,-0.369811l0.001147,0.927068c-0.000006,0.203747 0.002675,0.371817 0.009822,0.498151c0.005504,0.097456 0.011236,0.187823 0.023407,0.271931l0.010396,0.015765l0.001529,0.005771l-0.000764,2.188823l1.500607,-0.006402l0.002083,-0.822825l-0.406482,-0.22494l0.20111,-0.703045l0.108992,0.10681l-0.000955,0.550473l0.097425,-0.23631l-0.000955,-2.979772c-0.831137,0.219532 -0.562837,0.148274 -1.547445,0.40845l0.000084,0.000052zm7.204923,-1.905847c0.228705,0.102955 0.436331,0.243629 0.612523,0.417031c0.083582,0.017982 0.166503,0.038697 0.250107,0.056632c-0.030289,0.041864 -0.060325,0.081346 -0.090635,0.123206c0.123187,0.152665 0.230023,0.314851 0.306806,0.498935c0.049494,0.007969 0.100161,0.019962 0.149671,0.027902c0.010052,0.008007 0.02065,0.014676 0.030801,0.022658c-0.055624,-0.005007 -0.115568,-0.010931 -0.1712,-0.015957c0.096886,0.242559 0.149346,0.509732 0.14943,0.788408l0.000382,3.808368c0.128287,-0.014256 0.256299,-0.026968 0.384621,-0.041235l-0.002599,-3.770531c0,-0.854738 -0.431535,-1.605366 -1.087627,-2.051806c-0.114723,0.030251 -0.405393,0.102978 -0.532224,0.136428l-0.000055,-0.000038zm-17.997305,4.890358l-0.01802,0.048107l0.016587,0.038833l0.001529,-0.086939l-0.000096,0zm2.359663,-0.607535l0.109707,0.063341l-0.077553,0.125881l-0.110123,-0.087958l0.077969,-0.101264zm4.415865,-1.078149l-0.089919,0.079735l-0.004414,0.16811l-0.26358,0.26228l0.296257,0.044268l-0.002255,0.037701l-0.040985,0.146995l-0.37711,-0.115336l-0.009994,0.008867l-0.740806,0.396335l0.197518,-0.485692l0.433637,-0.227482l0.004032,0.153479l0.031932,0.003803l0.170867,-0.262166l0.394806,-0.210894l0.000013,-0.000004zm-7.348436,1.993713l0.025861,0.073442l-0.147712,0.002484l-0.015039,-0.033064l0.136892,-0.042863l-0.000002,0zm5.046102,-1.33355l0.027709,0.011122l-0.092181,0.117437l-0.079624,0.00279l0.144097,-0.131347l0,-0.000002zm1.154072,-0.284505l0.116194,0.018326l-0.019154,0.066956l-0.053874,-0.016473l-0.051199,-0.029559l0.008026,-0.039247l0.000006,-0.000004zm-1.98282,0.53746l0.011561,0.343114l0.328992,-0.248904l-0.012249,0.046561l-0.028731,0.100435l-0.082302,0.015861l-0.203747,0.116416l0.004433,0.1781l0.213016,-0.081807l-0.091545,0.327463l-0.009994,0.008867l0.008867,0.009994l-0.035741,0.028124l-0.007319,-0.004223l-0.064168,0.060471l-0.033782,0.05851l0.002752,-0.26658l-0.126298,-0.102172l0.05727,-0.040075l0.036983,0.045731l0.032762,0.053047l-0.000764,-0.648946l0.000006,0.000011zm0.031084,0.900486l0.049127,-0.093536l-0.018135,-0.0446l0.004223,-0.007319l0.032347,0.028426l0.066018,-0.122789l-0.140703,0.074795l0.007128,0.165018l-0.000006,0.000006zm-1.537316,-0.453626l0.144733,0.078684l-0.171999,0.281027l-0.13165,-0.076007l-0.035439,-0.039964l0.194345,-0.243725l0.00001,-0.000015zm3.573701,-0.852483l-0.047883,0.167391l-0.080343,0.046257l0.025943,-0.180059l0.102283,-0.033589zm8.952885,-2.374187c-0.072022,0.020893 -0.141136,0.041627 -0.21034,0.068724c-0.291365,0.114106 -0.547454,0.278753 -0.769528,0.496775c-0.220048,0.215978 -0.387888,0.468799 -0.503024,0.753036c-0.115109,0.284237 -0.172763,0.59005 -0.172767,0.924201c-0.000011,0.203747 0.022276,0.403252 0.064944,0.588483l0.011122,-0.027709l0.196046,0.200957l-0.118346,0.112084c0.006497,0.016893 0.011275,0.027868 0.018135,0.0446c0.114108,0.283205 0.278887,0.542161 0.500998,0.762209c0.061189,0.06009 0.12639,0.112636 0.19253,0.164796l0.00988,-0.101566l-0.041732,-0.155744l0.002752,-0.26658l0.083956,0.082604l-0.016778,0.121964l-0.029257,-0.016893l0.02658,0.029974l-0.025529,0.204684l0.044409,0.142661c0.01009,0.007415 0.014867,0.01695 0.025032,0.024204l0.034692,-0.262777l0.170705,0.244833l-0.063341,0.109709c0.048002,0.029335 0.10028,0.051411 0.1505,0.077138l0.012249,-0.046561l0.011944,0.021529l0.019677,0.050369c0.054019,0.026098 0.112827,0.056257 0.169352,0.078271c0.181901,0.070841 0.369428,0.117641 0.570271,0.143955l0.054896,-0.09508l0.071289,0.104545c0.023591,0.001949 0.051556,0.003172 0.075403,0.004529l-0.140924,-0.110618l0.04645,-0.080454l0.159058,0.155218l-0.015345,0.035024c0.021523,0.000955 0.047931,0.005695 0.069634,0.006077l-0.003937,-1.352908c-0.205869,-0.022473 -0.368683,-0.110597 -0.489609,-0.258306c-0.142629,-0.174204 -0.215118,-0.41789 -0.215137,-0.733697c0.000011,-0.305621 0.077939,-0.54518 0.219551,-0.726531c0.125732,-0.161009 0.287333,-0.255267 0.489361,-0.273326l-0.002389,-1.347137c-0.239311,0.00407 -0.467385,0.040079 -0.683439,0.102757l0.000006,-0.000025zm0.732684,-0.103586l0.000764,1.341366c0.010185,-0.000382 0.015899,0.005351 0.026163,0.005351c0.13651,0.000006 0.257675,0.026918 0.363619,0.08804c0.105942,0.061132 0.203079,0.153499 0.278447,0.277778l1.428047,-0.53102c-0.226182,-0.387124 -0.517318,-0.684165 -0.873886,-0.884855s-0.759036,-0.298207 -1.217478,-0.298207l-0.005771,0.001529l0.000094,0.000017zm-14.233845,3.869519l0.027711,0.011122l-0.038418,0.041206l-0.023488,-0.018441l0.034195,-0.033893l0,0.000006zm5.723731,-1.527475l0.003612,0.128862l-0.120609,0.149784l-0.087324,0.320164l0.215767,-0.348389l0.002484,0.147714l-0.218252,0.200671l-0.087545,0.134742l0.085888,-0.233215l0.00172,0.098474l0.017906,-0.140812l0.050975,-0.155857l0.018441,-0.023486l0.030275,-0.094667l0.056744,-0.157401l0.029972,-0.026578l-0.000055,-0.000008zm-5.681308,1.547043l0.35179,0.15922l-0.063756,0.08509l-0.03563,0.120831l-0.287734,-0.312405l0.035328,-0.052743l0.000002,0.000008zm3.218643,-0.862458l0.058126,0.355364l-0.074574,0.044713l-0.093867,-0.327253l0.110314,-0.072837l0,0.000013zm-16.719823,4.535682l0.000191,3.715495c0.127041,-0.025664 0.254082,-0.051694 0.381123,-0.07739l0.002465,-2.436484c-0.004242,0.007453 -0.008427,0.014485 -0.01267,0.021942c-0.017409,-0.01439 -0.038426,-0.032456 -0.055835,-0.046865c0.006344,-0.011179 0.010549,-0.018097 0.016893,-0.029255c0.015613,0.008542 0.034034,0.01525 0.049651,0.02379l-0.001529,-1.20519c-0.126854,0.01116 -0.253547,0.022655 -0.380397,0.033922l0.000107,0.000036zm12.292684,-3.269093l0.168937,0.053652l0.050591,0.165736l-0.244222,0.034527l0.024701,-0.25391l-0.000008,-0.000006zm6.142998,-1.577982l0.102395,0.059118l-0.28397,0.255382l-0.292455,-0.0762l0.474016,-0.238298l0.000013,-0.000002zm-1.537336,0.492304l-0.041814,0.097757l-0.023073,0.006172l0.064887,-0.103939l0,0.00001zm2.019511,-0.330941l-0.1038,0.374034l-0.017313,0.004644l-0.005771,0.001529l-0.62502,0.390048l0.019457,-0.135044l0.605567,-0.255l-0.596814,0.172279l0.036125,-0.349707l0.521828,-0.152188l0.165734,-0.050591l0.000008,-0.000004zm1.414881,-0.280205l0.10002,0.004109l-0.005542,0.18696l-0.131125,0.041317l-0.063452,0.017008l0.036045,-0.096212l0.036156,-0.003516l-0.031934,-0.003803l0.059836,-0.145864l-0.000004,0.000002zm6.272179,-1.649681l0.033891,0.034195l-0.020285,0.085808l-0.007625,0.063865l-0.077776,-0.059532l0.071787,-0.124335l0.000008,0zm-6.086624,1.649471l0.136176,0.000573l-0.030994,0.138134l-0.046146,0.012364l-0.074988,0.020092l0.015957,-0.1712l-0.000004,0.000036zm-4.318023,1.212662l0.167502,0.14059l-0.194995,0.033702l-0.06439,-0.124943l0.091879,-0.049349l0.000004,0zm4.658558,-1.211152l0.049238,-0.000764l-0.061076,0.072007l-0.092294,0.02473l0.104132,-0.09591l0,-0.000063zm0.073857,-0.001338l0.168108,0.004414l-0.209213,0.049872l0.041095,-0.054289l0.00001,0.000002zm-6.838017,1.844619l-0.057157,0.132782l0.056551,0.003402l0.000573,-0.136177l0.000032,-0.000006zm5.203184,-1.208725c-0.098461,0.19339 -0.189146,0.380684 -0.290123,0.578526l0.120003,-0.013606l-0.067977,0.092403l-0.011542,0.003096l-0.109072,0.146692l-0.049238,0.000764c-0.087352,0.170974 -0.161542,0.319074 -0.250987,0.493832c-0.006402,0.012498 -0.014714,0.024063 -0.021112,0.036568l0.593948,0.001529l0.086827,-0.091272l-0.000764,-1.248665l0.000038,0.000132zm-0.24963,0.660411l-0.08117,-0.002981c-0.002637,0.005179 -0.005809,0.009459 -0.008446,0.014619l0.089617,-0.011657l0,0.000019zm-2.699816,0.191727l0.20499,-0.042561l-0.154582,0.369084l-0.197671,0.046782l0.065493,-0.240113l0.081776,-0.133194l-0.000006,0.000002zm-1.716986,0.490985l0.005771,-0.001529l-0.005771,0.001529zm3.53682,-0.898212l0.141226,0.042529l-0.111335,0.184393l-0.059229,0.009689l0.029337,-0.236616l0,0.000006zm-0.421388,0.180917l0.053874,0.016473l0.049045,0.159967l-0.12577,0.015154l0.022851,-0.191594zm0.577246,-0.129942l0.011542,-0.003096l0.288212,0.083515l-0.010701,0.052328l-0.3254,0.031548l-0.03461,0.009268l0.070958,-0.173573l-0.000002,0.00001zm7.845288,-2.077413l0.355287,0.195377l-0.034581,0.355478l-0.172442,-0.089808l0.039439,-0.152765l-0.077555,0.125881l-0.283702,-0.158916l0.173545,-0.275256l0.00001,0.000008zm-2.623759,0.752482l0.016167,0.014218l-0.0103,0.076947l-0.023486,-0.018441l0.0176,-0.072724l0.000019,0zm-5.415874,1.568656l0.026165,0.005351l-0.018441,0.023488l-0.005771,0.001529l-0.001968,-0.030386l0.000015,0.000019zm0.085806,0.020285l0.040379,-0.010816l0.331171,-0.033092l-0.026054,0.087352l-0.191173,0.00172l-0.120832,-0.03563l-0.033478,-0.009574l-0.000011,0.00004zm6.323011,-1.55205l0.000382,0.024617l-0.008867,-0.009994l0.008446,-0.014619l0.000038,-0.000004zm1.310637,-0.276995l0.175037,0.330234l-0.060662,0.096626l-0.206136,-0.284792l0.091769,-0.142056l-0.000008,-0.000013zm-4.356816,1.321969l-0.581966,0.366141l0.318176,-0.289282l0.26379,-0.076867l0,0.000008zm-1.149027,0.326432l-0.177273,0.053681l0.003917,0.060775l0.173352,-0.114456l0.000004,0zm3.016081,-0.764884l0.122791,0.066016l-0.02666,0.223526l-0.165845,-0.042116l0.069714,-0.247432l0,0.000006zm4.32968,-1.123057l0.003191,1.050153l0.61279,0.002733c-0.018345,0.116141 -0.072559,0.202735 -0.169321,0.267937c-0.0968,0.065206 -0.225876,0.101937 -0.380703,0.102009c-0.022928,0.000011 -0.041846,-0.006364 -0.063866,-0.007625l-0.001911,1.354456l0.007319,0.004223c0.458441,0 0.861101,-0.106085 1.221739,-0.308812s0.656647,-0.490832 0.884855,-0.873886c0.093704,-0.162996 0.170453,-0.353835 0.21936,-0.565742c0.048888,-0.211888 0.070708,-0.448466 0.070706,-0.705185c0.000015,-0.034642 0.001529,-0.072498 -0.000573,-0.117326c-0.002121,-0.044806 -0.006555,-0.109483 -0.010625,-0.201168l-2.393105,-0.00172l0.000145,-0.000048zm-2.153279,0.731538l0.186574,0.327139l-0.099909,0.088594l-0.18111,-0.260599l0.094446,-0.155138l0,0.000004zm-19.170831,5.285355c-0.227023,0.074728 -0.430235,0.183526 -0.602777,0.33461c-0.344337,0.301551 -0.513286,0.695325 -0.513286,1.176182c-0.000002,0.278562 0.071839,0.512942 0.214735,0.709084c0.491577,-0.101679 1.02147,-0.214869 1.592161,-0.333884l-0.001949,-0.030386l-0.051199,-0.029559l-0.013071,-0.002675l-0.003096,-0.011542l0.016167,0.014218l0.053461,-0.008141l-0.002905,-0.172331l-0.090748,0.030499l-0.024841,-0.185001l0.091575,0.018747l-0.105485,-0.070654l-0.004644,-0.017313c-0.034587,-0.032595 -0.050895,-0.062571 -0.050895,-0.097647c0.000006,-0.067239 0.033316,-0.117439 0.094444,-0.155138c0.025586,-0.015785 0.05469,-0.027098 0.089202,-0.036266l-0.000764,-1.248665c-0.011944,0.000382 -0.02009,-0.004185 -0.031934,-0.003803c-0.121222,0.004204 -0.237782,0.018575 -0.348465,0.03773l0.003497,0.036156l-0.072724,-0.0176c-0.081428,0.01674 -0.160827,0.03846 -0.236501,0.06337l0.00004,0.000011zm19.778519,-5.231848l0.092514,0.160684l0.035964,0.15729l0.106728,0.144511l-0.023983,0.210436l-0.082745,-0.354962l-0.13063,-0.187565l-0.00172,-0.098474l0.003803,-0.031934l0.000069,0.000015zm-5.812973,1.563745l0.026165,0.005351l0.001968,0.030386l-0.035022,-0.015345l0.006899,-0.020396l-0.00001,0.000004zm-13.230969,3.551343l0.003402,1.235575c0.036587,-0.005981 0.069544,-0.012058 0.114234,-0.012058c0.146699,0.000002 0.300461,0.027826 0.456339,0.087929c0.15587,0.060111 0.311679,0.150386 0.466544,0.264478l0.490221,-1.170009c-0.252649,-0.136512 -0.506903,-0.237285 -0.755482,-0.304532c-0.248579,-0.067232 -0.499661,-0.100259 -0.756399,-0.100263c-0.006574,-0.000021 -0.012288,-0.001147 -0.018842,-0.001147l-0.000015,0.000027zm-0.404093,0.176281l0.00237,0.055007l-0.140288,0.099414l-0.027822,-0.103831l0.165734,-0.050591l0.000006,0zm21.691397,-5.731948l0.167917,0.165209l0.160328,0.575278l0.000764,0.049238l-0.32603,-0.178484l-0.003038,-0.611242l0.000059,0.000002zm-7.069817,2.017982l0.030801,0.02266l-0.000191,0.160795l0.011638,0.089615l-0.026992,-0.054591l-0.066956,-0.019154l0.051692,-0.199333l0.00001,0.000008zm-13.897323,3.810279l0.506407,0.136338l-0.036761,0.139682l-0.465722,-0.215251l-0.003917,-0.060775l-0.000006,0.000006zm18.720416,-4.614223l0.102395,0.059118l-0.006784,0.113103l-0.099716,-0.0722l0.004109,-0.10002l-0.000004,0zm0.190162,0.109789l0.007319,0.004223l0.056773,0.188807l-0.07932,-0.0653l0.01523,-0.127731l-0.000002,0zm-19.554935,5.332365l0.072726,0.0176l0.006593,0.047692l-0.068917,-0.049542l-0.010396,-0.015765l-0.000006,0.000015zm4.030231,-1.018068c-0.053358,0.013969 -0.10792,0.031403 -0.159967,0.049045l0.035246,0.200766l-0.0892,0.036266l-0.058319,-0.194575c-0.04375,0.01739 -0.086016,0.032905 -0.128035,0.052854l0.055116,0.090331l0.053572,0.084566l-0.050369,0.019679l-0.005771,0.001529l-0.182625,0.079848l-0.118266,-0.141419c-0.13981,0.087742 -0.27281,0.191211 -0.393163,0.309367c-0.074375,0.072332 -0.140899,0.153774 -0.203212,0.23375l0.389188,0.229565l-0.070956,0.173573l-0.34665,-0.370804c-0.062466,0.083872 -0.121345,0.170262 -0.170867,0.262166l0.035439,0.039962l0.421827,0.18991c0.042876,-0.009001 0.096888,-0.022267 0.139984,-0.031326l-0.017715,-0.019981l0.14059,-0.167502l0.147825,0.090221l-0.029559,0.051199c0.333349,-0.070085 0.730124,-0.159812 1.075283,-0.232488l-0.021942,-0.01267l0.104132,-0.095908l0.005771,-0.001529l-0.001529,-0.005771l0.079928,-0.070876l0.001147,-0.365052l-0.136892,0.042863l-0.000764,-0.049238l0.00235,-0.291193l0.136894,-0.042863l-0.000573,-0.210034l-0.139571,0.055945l0.000382,-0.068088c-0.172654,0.01051 -0.338375,0.036008 -0.498457,0.077916l-0.000271,-0.000002zm0.557353,0.926399l0.050065,0.048409l0.027296,-0.013491l0.000764,-0.043471l-0.078078,0.008561l-0.000048,-0.000008zm0.050065,0.048409l-0.124943,0.06439c0.04876,-0.010262 0.102541,-0.024101 0.151521,-0.034417l-0.026578,-0.029974zm-2.016262,0.181672l-0.042337,-0.019566c-0.034688,0.065745 -0.065512,0.134612 -0.093616,0.204378c-0.017925,0.044508 -0.029385,0.089458 -0.044076,0.135459c0.120485,-0.025294 0.280282,-0.063635 0.402641,-0.089342l-0.222628,-0.230921l0.000017,-0.000008zm16.903658,-5.234141l0.145975,0.152543l0.00772,0.02884l-0.160905,-0.092898l0.007204,-0.088485l0.000006,0zm-14.812486,3.993732l0.002179,0.215806l0.26379,-0.076867l-0.046117,0.358574l-0.219188,0.058734l0.002714,0.33312l0.273975,-0.246515l0.015765,-0.010396l-0.239979,0.373422l-0.042227,0.073138c0.559054,-0.117727 1.147804,-0.241967 1.73214,-0.365205c-0.013319,-0.013874 -0.023239,-0.032114 -0.036985,-0.045731c-0.123882,-0.12053 -0.254293,-0.218901 -0.39773,-0.307647l-0.445408,0.045156l0.072806,-0.23589c-0.287505,-0.113395 -0.598859,-0.169851 -0.929973,-0.171223l-0.005771,0.001529l0.00001,-0.000006zm0.053134,1.005857l-0.049236,0.000764l-0.001147,0.018861l0.050367,-0.019679l0.000015,0.000054zm15.234428,-5.095978l0.02967,0.04151l-0.024921,0.068502l-0.008867,-0.009994l-0.042337,-0.019568l0.04645,-0.080454l0.000006,0.000004zm0.057793,0.077251l0.207684,0.290563l0.019264,0.02575l-0.004223,0.007319l-0.015039,-0.033065l-0.226851,-0.223602l0.019154,-0.066956l0.000011,-0.000008zm-16.305334,4.375161l0.065825,0.038005l-0.079928,0.070876l0.014103,-0.108881zm0.086221,0.044904l0.061604,0.045319l0.023073,-0.006172l0.015861,0.082302l0.019568,-0.042337l0.13165,0.076007l-0.12566,0.107861l-0.073553,-0.066846l-0.005771,0.001529l-0.02473,-0.092292l-0.028428,0.032345l0.034308,0.058816l-0.251541,0.030306l-0.072422,-0.085697l0.246496,-0.072229l0.015039,0.033064l0.034499,-0.101981l0.000006,0.000008zm16.014676,-4.260312l0.072009,0.061076l-0.061382,0.140095l-0.083956,-0.082604l0.07333,-0.118568zm0.126296,0.102172l0.227558,0.180141l-0.098667,0.162451l-0.171009,-0.176747l0.042116,-0.165845l0.000002,0zm-16.414259,4.453893l0.030608,0.183455l-0.027294,0.013491l-0.003306,-0.196944l-0.000008,-0.000002zm0.110011,-0.004739l0.291193,0.00235l0.009268,0.03461l-0.201473,0.078717l-0.099002,-0.115669l0.000013,-0.000008zm-10.452804,2.844094l0.002408,0.401208c-0.000008,0.045896 0.002714,0.089353 0.00516,0.134632c0.06178,0.016893 0.119921,0.039746 0.18202,0.05633c-0.006822,0.02348 -0.01074,0.049246 -0.0176,0.072724c-0.05238,-0.021957 -0.108407,-0.046096 -0.160493,-0.068281c0.002943,0.037891 0.00172,0.078386 0.006287,0.115782c0.033595,0.01246 0.068277,0.022129 0.101979,0.034499c-0.012727,0.034203 -0.027501,0.069336 -0.040266,0.103525l-0.014619,-0.008446c-0.010797,-0.013281 -0.018899,-0.028206 -0.02967,-0.04151c0.024625,0.152444 0.06646,0.29662 0.117467,0.438395c0.013702,0.022072 0.023646,0.048292 0.037398,0.070352c0.105319,0.059729 0.213914,0.121079 0.320259,0.180028l-0.004529,0.075403c-0.005676,0.009192 -0.012727,0.014275 -0.018441,0.023488c-0.072063,-0.048491 -0.145211,-0.090924 -0.216742,-0.139762c-0.026608,-0.045334 -0.054178,-0.093773 -0.080563,-0.139157c-0.006364,-0.003344 -0.009822,-0.010873 -0.016167,-0.014218c0.142058,0.367116 0.362988,0.692305 0.650474,0.950917c0.439981,0.395761 1.021642,0.636964 1.660631,0.636964l11.097564,0.00018c0.069053,-0.127809 0.137725,-0.255038 0.206499,-0.382996l-11.301847,-0.001147c-0.478354,0 -0.916959,-0.155146 -1.268787,-0.42047c-0.001338,-0.000955 -0.004453,0.00258 -0.005771,0.001529c-0.05268,-0.034803 -0.099921,-0.072609 -0.152461,-0.107528c0.052261,0.149335 0.102369,0.289397 0.163613,0.426031c0.008561,0.013969 0.02121,0.031795 0.031216,0.047277c-0.013319,-0.014944 -0.029301,-0.024734 -0.041206,-0.038418c-0.086626,-0.145845 -0.160368,-0.305162 -0.23675,-0.468244c-0.001529,-0.007854 -0.004663,-0.015211 -0.006192,-0.023073c-0.064411,-0.042966 -0.13067,-0.08392 -0.194804,-0.127095c0.030151,-0.013721 0.063322,-0.029796 0.093425,-0.04358c-0.191192,-0.230157 -0.334343,-0.505164 -0.413342,-0.80425c-0.055812,-0.014351 -0.116,-0.025997 -0.171613,-0.04057c0.012249,-0.029482 0.025399,-0.06095 0.037589,-0.090444c0.035613,0.011657 0.073586,0.027164 0.109294,0.038722c-0.031103,-0.144729 -0.0467,-0.29664 -0.0467,-0.45118l0.000573,-0.482386c-0.128578,0.027736 -0.256777,0.056939 -0.385347,0.084706l0.000052,0.000065zm7.109565,-1.892661l0.046257,0.080343l-0.056137,0.021225l0.004453,0.178098l0.166149,-0.025972l0.03276,0.053047c0.044906,-0.009383 0.077352,-0.017218 0.12268,-0.02669l0.000764,-0.043469l0.036154,-0.003497l-0.038114,-0.026882l-0.00321,-0.104243c-0.12896,-0.031013 -0.227806,-0.067637 -0.311717,-0.101952l-0.000038,-0.000008zm4.548486,-1.206394l-0.024204,0.025032l0.000382,0.024619l0.02379,-0.049651l0.000032,0zm-1.314536,0.562436l0.055005,-0.00237l0.029479,0.202295l-0.084979,0.028951l0.000573,-0.228877l-0.000078,0zm-2.804537,0.770025l-0.042531,0.141226c0.125885,-0.026295 0.210187,-0.045359 0.339197,-0.07234c-0.04182,-0.012899 -0.087862,-0.022517 -0.132369,-0.03254c-0.038716,-0.008141 -0.092988,-0.020042 -0.164299,-0.036347l0.000002,0zm-2.048367,0.592152c0.008217,0.010396 0.012154,0.021367 0.020809,0.03152c0.177265,0.207837 0.438032,0.354561 0.772184,0.436064c0.057048,0.01223 0.135147,0.031544 0.237017,0.053956c0.315807,0.065202 0.471187,0.1575 0.471187,0.281791c-0.000002,0.071315 -0.032416,0.13222 -0.095575,0.173988c-0.063165,0.04177 -0.145329,0.062233 -0.255344,0.062238c-0.156889,0 -0.325667,-0.037346 -0.505986,-0.111719c-0.180325,-0.074365 -0.384124,-0.193734 -0.614376,-0.354714l-0.517815,1.251588c0.29341,0.167076 0.586419,0.292779 0.879829,0.376308c0.178433,0.050803 0.357752,0.089821 0.53637,0.10976l-0.053876,-0.016473l0.006899,-0.020396l0.165018,-0.007128l-0.01802,0.048105c0.084323,0.006899 0.166575,0.013167 0.250834,0.013167c0.058936,-0.000006 0.114291,-0.005102 0.170787,-0.008676l0.022244,-0.05542l0.092707,-0.000111l0.000764,-1.242894l-0.039135,0.084675l-0.028124,-0.035741l0.059118,-0.102393l0.005771,-0.001529l0.00172,-1.100947l-0.023073,0.006172l-0.026387,-0.190768c-0.504992,0.1066 -1.010768,0.212404 -1.515627,0.319552l0.00008,0.000023zm5.235288,-1.365711l0.168108,0.004414l0.034308,0.058816l-0.126904,0.034004l-0.075512,-0.097234zm-3.625871,1.027203l0.003096,0.011542l0.068088,0.000382l-0.03657,-0.021112c-0.011657,0.002465 -0.022943,0.006822 -0.03461,0.009268l-0.000004,-0.00008zm0.216513,-0.045651l0.087878,0.143378l-0.302621,0.093454l0.002886,2.410304l0.288117,-0.009192c0.295627,-0.074782 0.548658,-0.206537 0.765419,-0.396755c0.35758,-0.313781 0.540173,-0.719174 0.540173,-1.214305c-0.000004,-0.146107 -0.017925,-0.27925 -0.058955,-0.404609l-0.080343,0.046257l-0.400692,0.11973l0.159937,-0.395246l0.18304,-0.055229c-0.021105,-0.031281 -0.042158,-0.057675 -0.066655,-0.087241c-0.098193,-0.118509 -0.223048,-0.212653 -0.361173,-0.286531l-0.033367,0.083131l-0.172331,0.002905l0.090223,-0.147823c-0.022018,-0.009039 -0.045592,-0.016893 -0.068502,-0.024923c-0.134475,0.028311 -0.268185,0.061 -0.402641,0.089342l-0.053652,0.168937l-0.011542,0.003096l0.000191,-0.160795c-0.035101,0.007395 -0.070276,0.014657 -0.105375,0.022053l-0.000013,0.000063zm1.89675,-0.396946c-0.007262,0.023618 -0.018231,0.044703 -0.024921,0.068502l0.537689,-0.069886l-0.085502,-0.088373c-0.142384,0.029842 -0.284887,0.059886 -0.427273,0.089756l0.000008,0zm0.60763,-0.131903l-0.066733,0.16626l0.129053,-0.16441l0.134328,0.062926l0.046146,-0.012364l-0.078189,-0.084149c-0.054663,0.011447 -0.109942,0.020287 -0.164605,0.031739l0,-0.000002zm0.242788,0.05241l0.025034,0.024204l-0.005771,0.001529l-0.023073,0.006172l0.014619,0.008446l-0.228437,0.370326l-0.01309,-0.002675l0.008867,0.009994l-0.009994,0.008867l-0.039549,0.060056l-0.201168,0.010625l0.080949,-0.182432l0.186847,-0.087161l-0.104767,-0.114123l-0.011944,-0.021527l-0.233406,0.074906l-0.173352,0.114457l0.138136,0.030992l-0.209805,0.18605l-0.024619,0.000382l-0.005771,0.001529l-0.128035,0.052854c-0.002752,0.026807 0.000573,0.059779 -0.001529,0.086938l0.009994,-0.008867l-0.017619,0.072726c-0.002083,0.04418 -0.007911,0.086863 -0.007911,0.131952c0,0.272944 0.043345,0.533065 0.120173,0.771515l0.022962,-0.098889l0.120831,0.03563l-0.022437,0.216207l-0.063866,-0.007625c0.004797,0.01202 0.004147,0.022742 0.009268,0.03461l0.049653,0.023792l-0.013377,0.065411c0.111203,0.234151 0.261344,0.44109 0.452364,0.626874c0.226163,0.222093 0.486284,0.386474 0.777649,0.502604c0.280091,0.111644 0.579941,0.168859 0.899588,0.173181l0.000191,-1.106718l-0.017619,0.072726l-0.196639,-0.064776l-0.040297,-0.242674l-0.178291,0.165239l-0.211697,-0.09784l-0.015154,-0.12577l0.049238,-0.000764l0.089424,0.149147l0.090223,-0.147823l0.34621,-0.000031l0.085806,0.020287l-0.002064,-0.123095c-0.208257,-0.008408 -0.376002,-0.084138 -0.506502,-0.229049c-0.085908,-0.095378 -0.145578,-0.207378 -0.178131,-0.341758l-0.055611,0.138549l0.00237,0.055005l-0.100435,-0.028729l-0.11973,-0.400692l0.146995,0.040985l0.063895,0.353835l0.006899,-0.020396l0.004414,-0.168108l0.025639,-0.111971c-0.004242,-0.041535 -0.003612,-0.084279 -0.003612,-0.128862c-0.000004,-0.145037 0.019704,-0.26895 0.064552,-0.38206l-0.204034,0.184504l0.003096,0.011542l-0.027296,0.013491l-0.289741,0.25693l-0.635129,0.306194l0.844094,-0.541473l-0.046146,0.012364l-0.037094,-0.13844l-0.165847,-0.042116l0.656322,-0.59626l0.436542,-0.055147l-0.074877,0.112801l-0.468359,0.144045l0.149369,0.09599c0.13033,-0.146751 0.305755,-0.22173 0.513267,-0.230272l-0.001987,-0.376594c-0.046928,0.009803 -0.094604,0.015746 -0.14153,0.025559l0.1059,0.095271l-0.047996,0.074686l-0.344662,0.00579l0.169847,-0.150613c-0.33377,0.069762 -0.666546,0.142509 -1.000296,0.212385l-0.070654,0.105485l-0.050369,0.019679l0.000094,0.00001zm-0.003803,0.031932l-0.042337,-0.019566l-0.142661,0.044407l0.184999,-0.024841zm1.42971,-0.432548l-0.000764,0.389685c0.221902,0.002083 0.402775,0.079105 0.538434,0.232851c0.137529,0.155874 0.201531,0.356969 0.201531,0.613707c0,0.101541 -0.008236,0.194422 -0.030054,0.280071l0.105789,0.002561l-0.062483,0.505145l0.025336,-0.043883l-0.029144,0.075816l-0.008752,0.082716l-0.081585,-0.0276l-0.00014,-0.438911c-0.031386,0.067106 -0.070039,0.125797 -0.11865,0.18017c-0.135663,0.151739 -0.315998,0.228609 -0.53788,0.230673l-0.002159,0.130408l0.026165,0.005351l-0.026054,0.087352l0.002675,1.279049c0.326718,-0.001147 0.63446,-0.058367 0.924163,-0.173441c0.098866,-0.039272 0.194976,-0.081306 0.286034,-0.132287l-0.161624,-0.049429l0.0276,-0.081585l0.192836,0.096708c0.155169,-0.093009 0.29727,-0.209461 0.428898,-0.337496c0.208563,-0.206652 0.371473,-0.440383 0.486552,-0.699147l-0.026165,-0.005351l0.047996,-0.074684l0.013071,0.002675c0.109798,-0.275581 0.161641,-0.577552 0.161645,-0.896492c-0.000004,-0.330081 -0.056779,-0.635187 -0.171895,-0.918411c-0.10368,-0.255057 -0.254598,-0.482691 -0.443192,-0.684967c-0.589667,0.122969 -1.178666,0.24554 -1.768295,0.368721l0.000113,0.000025zm-1.969444,0.725556l0.05542,0.022244l-0.089506,0.104354l-0.013797,0.040793l-0.024619,0.000382l0.038418,-0.041206l0.034086,-0.126598l-0.000002,0.000031zm6.584622,-1.752014c-0.053853,0.014027 -0.107542,0.031579 -0.159965,0.049045l0.026163,0.005351c0.219379,-0.046341 0.398169,-0.088302 0.619173,-0.134993c-0.16737,0.010377 -0.329527,0.039981 -0.485367,0.080593l-0.000004,0.000004zm-0.400271,0.144349c-0.167848,0.077977 -0.321941,0.176896 -0.465875,0.291767l0.112799,0.074877l0.063866,0.007625l0.009268,0.03461l-0.07314,-0.042227l-0.17429,-0.027489c-0.042152,0.035873 -0.07989,0.067041 -0.119892,0.106315c-0.222093,0.215978 -0.394691,0.471359 -0.508795,0.754565c-0.114102,0.283225 -0.168544,0.584775 -0.168544,0.916882c-0.000008,0.012517 -0.000955,0.031032 -0.000764,0.043469l0.018441,-0.023488l0.035408,-0.306252l0.144207,-0.03864l-0.06817,0.253203l0.306634,-0.286187l0.033478,0.009574l-0.407151,0.510955l-0.03563,0.120831l-0.01309,-0.002675c0.023119,0.225934 0.07147,0.438949 0.152711,0.639142c0.016817,0.041424 0.039465,0.086452 0.058623,0.126489l0.477857,0.075978l-0.039549,0.060058l-0.068392,0.067784l-0.25928,0.001529c0.06251,0.101159 0.138236,0.192129 0.217678,0.281715c0.218863,-0.418043 0.442962,-0.833411 0.659762,-1.252525l-0.049236,0.000764l0.079926,-0.070876c0.282078,-0.54562 0.560735,-1.093953 0.8401,-1.640872l-0.034195,0.033893l-0.17316,-0.046339l0.041814,-0.097757l-0.063756,0.08509l-0.107748,-0.032953l-0.005045,-0.041925l-0.04151,0.02967l-0.494864,-0.13943l0.019154,-0.066956l0.522879,0.082464l-0.005656,0.094253l0.085695,-0.072422l0.108881,0.014103l-0.01802,0.048107l0.036872,-0.046975l0.198913,0.027075c0.064669,-0.126707 0.130404,-0.253146 0.194957,-0.3799l-0.001529,-0.005771l-0.105789,-0.002561l0.089504,-0.104354l-0.12566,0.107861l-0.117326,0.000573l0.066735,-0.16626l0.193142,0.028621l-0.002179,-0.215806l-0.111557,-0.000955l0.004223,-0.007319c-0.183497,0.038275 -0.366447,0.078183 -0.549938,0.116447l0.045015,0.006478l-0.039439,0.152765l0.052936,-0.125468l-0.001968,-0.030386l0.01309,0.002675l-0.011122,0.027709l-0.000573,0.136176l-0.052328,-0.010701l-0.321692,-0.093091c-0.01567,0.003268 -0.032014,0.003325 -0.047692,0.006593l-0.000023,-0.00012zm1.070333,-0.181695l0.003726,0.221577l0.018842,0.001147c0.03769,-0.07406 0.075942,-0.14802 0.113597,-0.222093l-0.136176,-0.000573l0.00001,-0.000057zm-7.306395,1.988744l-0.013797,0.040792l-0.12762,0.077473l0.085283,-0.097039l0.056137,-0.021225l-0.000002,0zm7.467298,-1.988553c-0.039121,0.076444 -0.078676,0.152973 -0.117821,0.229412l0.258554,0.042005l-0.052217,0.081998l-0.247738,-0.00172l-0.00172,1.100947c0.221902,0.002083 0.402775,0.079106 0.538434,0.232851c0.080811,0.091591 0.140242,0.198282 0.173493,0.324463l0.748851,-0.089372l-0.015765,0.010396l-0.113819,0.036681l-0.608051,0.107282c0.014198,0.072003 0.02258,0.140152 0.022578,0.222704c-0.000004,0.254694 -0.067916,0.463811 -0.205448,0.617644c-0.135663,0.151739 -0.315998,0.228609 -0.53788,0.230673l0.000573,1.502155c0.326718,-0.001147 0.63446,-0.058363 0.924163,-0.173441c0.292378,-0.116137 0.549613,-0.286072 0.773751,-0.504075c0.224118,-0.222093 0.392647,-0.472372 0.508795,-0.754565c0.116133,-0.282193 0.180074,-0.591941 0.18008,-0.919978c-0.000006,-0.330081 -0.056781,-0.635187 -0.171895,-0.918411c-0.115126,-0.283205 -0.289397,-0.529567 -0.509426,-0.74759c-0.226163,-0.220048 -0.486284,-0.387487 -0.777649,-0.502604c-0.147555,-0.0583 -0.300939,-0.095178 -0.459836,-0.124085l-0.310055,-0.003478l0.000048,0.000109zm-9.103087,2.482347l-0.165706,0.396793l-0.131125,0.041317l0.109569,-0.375582l0.187261,-0.062542l0,0.000013zm-0.410686,0.128589l0.000031,0.34621l-0.005771,0.001529l-0.24619,0.004147l-0.044933,-0.259987l0.29685,-0.091908l0.000013,0.00001zm2.012249,-0.335146l-0.042196,0.419343l-0.070048,-0.03069l0.112245,-0.388653zm7.295502,-1.868258c-0.057769,0.112732 -0.117563,0.224883 -0.175392,0.337572l0.045015,0.006478l-0.089919,0.079737c-0.28546,0.556073 -0.569335,1.115241 -0.856993,1.670129l0.292455,0.076202l-0.33312,0.002714c-0.220335,0.42477 -0.445982,0.843406 -0.668208,1.267163c0.036572,0.040574 0.072011,0.079378 0.112082,0.118346c0.226163,0.222093 0.487832,0.392245 0.779197,0.508375c0.280091,0.111643 0.574169,0.170407 0.893817,0.174727l-0.002198,-1.507926c-0.208257,-0.008408 -0.376002,-0.08414 -0.506502,-0.229049c-0.138553,-0.153829 -0.207302,-0.357466 -0.207302,-0.612159c0.000006,-0.016434 0.004357,-0.034764 0.004949,-0.050782l-0.104243,0.00321l0.079928,-0.070876l0.024619,-0.000382c0.019352,-0.197843 0.085015,-0.368339 0.200193,-0.498782c0.130515,-0.147789 0.30501,-0.221691 0.513267,-0.230272l-0.00172,-1.044401l0.000075,-0.000025zm-6.148539,1.672231l0.005771,-0.001529l-0.005771,0.001529zm20.94612,-5.396382l0.00321,0.104243c0.126718,-0.02696 0.252114,-0.056039 0.379576,-0.08316l0.001911,-0.062319c-0.128109,0.01437 -0.256528,0.026868 -0.384621,0.041235l-0.000076,0zm-21.129573,5.729655l0.001529,0.259261l-0.072726,-0.0176l0.071262,-0.241661l-0.000065,0zm21.129573,-5.568943l0.003,2.503177c0.022972,-0.036536 0.048172,-0.068671 0.070654,-0.105487c0.039848,0.064912 0.076251,0.130855 0.11487,0.197976c-0.060616,0.08048 -0.12256,0.155499 -0.184363,0.234877l0.000054,4.222666c0.000004,1.16785 -0.933431,2.102447 -2.1013,2.102447l-6.861904,0.002446c0.014122,0.015785 0.028703,0.028378 0.042752,0.044187c-0.066265,0.018345 -0.13441,0.04117 -0.200346,0.059865c-0.023283,-0.034474 -0.047885,-0.070138 -0.071291,-0.104547l-0.593948,-0.001529c0.073198,0.041852 0.147624,0.084014 0.219417,0.12668c0.041311,0.024525 0.077346,0.048405 0.118568,0.073331c-0.054279,0.016129 -0.106353,0.032207 -0.159967,0.049045c-0.070037,0.021991 -0.140483,0.045953 -0.21034,0.068724c-0.098094,-0.056356 -0.203174,-0.110183 -0.304092,-0.165815c-0.043545,0.037638 -0.088239,0.071568 -0.131429,0.109405c-0.189581,-0.03358 -0.37604,-0.059699 -0.567882,-0.08895c0.046263,-0.043861 0.091589,-0.086211 0.138327,-0.129801c0.140171,0.007071 0.281161,0.013988 0.420489,0.023346c-0.039985,-0.021802 -0.082556,-0.044183 -0.122791,-0.066018l-1.273278,0.001147c0.003917,0.002102 0.010701,0.006344 0.014619,0.008446c0.139503,0.001911 0.277033,0.000764 0.415846,0.006039l0.025861,0.073442c-0.002331,0.010969 -0.001529,0.020944 -0.003803,0.031934c-0.096846,-0.011466 -0.195683,-0.022966 -0.293162,-0.032731c-0.047986,-0.028145 -0.096382,-0.050895 -0.144733,-0.078686c-0.112908,0.00172 -0.225819,0.000764 -0.338891,0.004242c0.000103,-0.004051 -0.003191,-0.007491 -0.003096,-0.011542l-1.212509,-0.002771c-0.018364,0.020056 -0.032806,0.043087 -0.051086,0.063148c-0.031447,0.00172 -0.065521,0.005695 -0.09693,0.007434c0.015574,-0.022119 0.03388,-0.046796 0.049542,-0.068917l-0.098476,0.00172c-0.008332,0.021579 -0.018192,0.041168 -0.026467,0.062733c-0.219647,0.012173 -0.440019,0.027489 -0.656972,0.040023c-0.023736,0.003765 -0.041302,0.007491 -0.064996,0.011236c0.004586,-0.00386 0.003841,-0.010759 0.008446,-0.014619c0.019091,0.000189 0.037434,0.003287 0.056551,0.003402c0.213704,-0.033859 0.428821,-0.071432 0.645754,-0.105019l-4.296429,0.001338c-0.068437,0.127297 -0.137785,0.25586 -0.206499,0.382996l13.40372,0.000573c0.002408,-0.005809 0.004682,-0.014638 0.006899,-0.020396c0.023671,0.006459 0.049045,0.011332 0.072726,0.0176l2.349535,0.000955c1.372973,-0.000002 2.487507,-1.111171 2.487507,-2.484067l0.001338,-2.417757c-0.023906,0.037329 -0.050899,0.075877 -0.074876,0.112799c-0.078873,-0.057501 -0.158494,-0.114129 -0.237552,-0.171282c0.065697,-0.104121 0.130594,-0.20499 0.194651,-0.311813c0.027497,0.041338 0.054453,0.078659 0.081696,0.120307c-0.012421,-0.063318 -0.024781,-0.124603 -0.037923,-0.187676c0.008523,-0.013988 0.016797,-0.029803 0.025336,-0.043883c0.01481,-0.022328 0.028158,-0.044503 0.043773,-0.067371l0.000764,-0.643174c-0.060259,0.053691 -0.126166,0.099181 -0.190243,0.143712c-0.012651,-0.047245 -0.022387,-0.093884 -0.037096,-0.138438c0.080715,-0.077167 0.157215,-0.159917 0.220105,-0.263007c0.003726,-0.00602 0.002981,-0.014332 0.006899,-0.020396l0.001911,-3.246352c-0.128738,0.027405 -0.258153,0.051535 -0.386895,0.078936l-0.000048,-0.000292zm-24.290314,6.533217l0.189746,0.085172l-0.002675,0.01309l0.000955,0.141943l-0.147712,0.002484l-0.040297,-0.242693l-0.000017,0.000004zm12.606082,-3.322218l-0.000027,4.47606l1.552948,0.0043l-0.001147,-1.619488c-0.000013,-0.142621 -0.002714,-0.271453 -0.010854,-0.386589c-0.007262,-0.102306 -0.012823,-0.193237 -0.026497,-0.283473l-0.037701,-0.002255l0.000764,-2.188823l-1.477541,0.000191l0.000055,0.000076zm-13.003182,3.570835l0.092707,-0.000111l-0.027598,0.081583l-0.108881,-0.014103l0.043773,-0.067371l0,0.000002zm9.068499,-2.380493l0.207665,-0.055642l-0.259548,0.41575l-0.29685,0.09191l0.348752,-0.45202l-0.000019,0.000002zm-9.139204,2.485978l0.113517,0.031407l-0.072502,0.167806l-0.165018,0.007128l0.124003,-0.206327l0,-0.000013zm10.652882,-2.835876l0.011542,-0.003096l-0.198874,0.319132l-0.246496,0.072229l0.433828,-0.38827l0,0.000006zm-7.1453,1.920714l0.122487,0.134104l-0.000573,0.228877l-0.197059,-0.089395l0.075069,-0.273593l0.000076,0.000008zm5.335614,-1.429691l-0.140783,0.328304l-0.556436,0.161462l0.015345,-0.035024l-0.032651,0.03966l-0.017313,0.004644l0.049955,-0.044298l0.035326,-0.052743l0.646538,-0.401991l0.000019,-0.000013zm-8.318826,2.340362l0.044298,0.049955l0.082716,0.008752l0.00279,0.079624l-0.085504,-0.088373l-0.033478,-0.009574l-0.010816,-0.040377l-0.000006,-0.000008zm6.551563,-1.736955l-0.206729,0.197594l0.048712,-0.118153l0.158006,-0.079433l0.00001,-0.000008zm-6.059297,1.63598l0.188202,0.079403l0.254751,0.073937l-0.035741,0.028126l-0.218997,-0.102063l-0.197785,-0.045924l0.009574,-0.033478l-0.000004,0zm10.050354,-2.661978l0.117326,-0.000573l-0.046865,0.055833l-0.194575,0.058319l0.124114,-0.113628l0,0.00005zm3.533762,-0.909755l-0.003937,2.177357l1.358354,2.300614l0.043471,0.000764l-0.001911,-1.229803l-0.138964,-0.080232l0.138134,0.030994l-0.001147,-0.673559l-0.204779,-0.118235l0.118125,-0.297499l-0.427847,-0.719976l-0.091575,-0.018747l-0.032154,-0.189222l-0.068613,-0.117628l-0.035106,0.238164l0.010816,0.040379l-0.01309,-0.002675l0.002255,-0.037701l-0.041732,-0.155744l0.00172,-0.155027l0.033478,0.009574l-0.596298,-1.002532l-0.049238,0.000764l0.000038,-0.000029zm-3.367126,0.908398l0.104243,-0.00321l-0.177273,0.053683l0.07303,-0.05048l0,0.000008zm-10.740213,2.902569l0.158532,0.037894l-0.001147,0.018842l-0.179644,-0.001338l0.022244,-0.05542l0.000015,0.000021zm24.351465,-6.463276c0.004185,0.003058 0.016205,0.003841 0.020396,0.006899l-0.017313,0.004644c0.001911,-0.004873 -0.004949,-0.006669 -0.003096,-0.011542l0.000013,0zm-23.910031,6.425439l0.405125,0.058371l-0.174068,0.157926l-0.286683,-0.077748l0.055613,-0.138549l0.000013,0zm5.735197,-1.530571l-0.004529,0.075401l-0.055915,0.206633l-0.340439,-0.001529l0.044793,-0.178928l0.35609,-0.101597l0,0.000019zm-2.905245,0.809371l0.129802,0.138329l0.036154,-0.003497l0.004032,0.153481l-0.260503,-0.072391l0.040681,-0.078908l0.043469,0.000764l-0.038114,-0.026882l0.044489,-0.11084l-0.00001,-0.000057zm4.322036,-1.151893l0.329011,0.097314l0.07427,0.023377l-0.122155,0.144014l-0.014925,0.059643l-0.161926,0.018651l0.141226,0.042531l-0.065493,0.240113l-0.191173,0.00172l0.099495,-0.113213l0.015957,-0.1712l0.008752,-0.082716l-0.402316,0.36746l-0.100022,-0.004109l0.389322,-0.623644l-0.000023,0.000059zm-4.699261,1.290056l0.240419,-0.002599l-0.000382,0.068088l-0.240113,-0.065491l0.000076,0.000002zl0.132893,0.149864l0.108881,0.014103l-0.003803,0.031932l0.016893,-0.029255l0.290486,0.045814l0.000111,0.092707l-0.26658,-0.002752l0.221481,0.249783l-0.047581,0.099303l-0.560793,-0.270134l0.021831,-0.080039l0.365052,0.001147l-0.145975,-0.152541l-0.168523,-0.029033l0.03563,-0.120831l-0.000004,-0.000067zm3.387191,-0.833411l0.076532,-0.014332l-0.215767,0.348389l0.139239,-0.334075l-0.000004,0.000019zm9.222523,-2.359854l0.001147,0.327349l0.529281,0.290945l-0.022244,0.05542l-0.111971,-0.025639l0.103525,0.040268l-0.119669,0.291728l-0.38248,-0.089171l-0.001147,0.272351l0.025034,0.024204l0.24856,0.050864l-0.055613,0.138549l-0.050065,-0.048409l0.012249,-0.046561l-0.021112,0.03657l-0.134024,-0.131014l-0.020398,-0.006899l-0.001338,0.179646l0.165956,0.134823l-0.015345,0.035024l0.004644,0.017313l-0.156986,-0.032125c0.000191,0.19918 0.005484,0.360791 0.012498,0.485061c0.003363,0.058325 0.006688,0.111377 0.012899,0.163472l0.130104,0.07024l0.001147,0.327349l0.145117,-0.242903l0.209022,0.110922l-0.063228,0.20241l-0.290907,-0.070433l-0.110425,-0.019872l0.001147,0.673559l0.078493,0.016071l-0.039549,0.060056l-0.035024,-0.015345l-0.004319,1.206738l1.502155,-0.000573l-0.001147,-0.580858l-0.125054,-0.028317l0.001529,-0.340439l0.093121,0.024508l0.032156,0.189222l-0.003306,-2.434955l-0.149864,0.132893l-0.33161,-0.337725l0.263771,-0.423069l0.219417,0.126682l-0.000955,-0.141945l-0.122487,-0.134106l0.077555,-0.125881l0.042337,0.019566l-0.000031,-0.34621l-0.016587,-0.038833l0.016167,0.014218l0.003402,-0.056551l-0.77205,0.002847l0.007319,0.004223l-0.039137,0.084675l-0.140095,-0.06138l0.011122,-0.027709l-0.61279,-0.002733l0.000086,-0.000111zm0.39622,0.648086l-0.043883,-0.025336l0.010396,0.015765l0.033478,0.009574l0.00001,-0.000004zm-0.043883,-0.025336l-0.352306,-0.276555l-0.000573,0.136176l0.352918,0.14037l-0.000038,0.00001zm-7.799998,1.416104l0.200862,0.057461l-0.031105,0.045429l-0.031105,0.045429l-0.209614,0.025255l0.070958,-0.173575l0.000004,0zm-4.513324,1.314459l0.026578,0.029974l0.154309,0.045208l-0.004223,0.007319l0.055116,0.090333l-0.056966,-0.028015l-0.160795,-0.000191l0.008446,-0.014619l-0.009689,-0.059229l0.078493,0.016071l-0.030801,-0.02266l-0.033893,-0.034195l-0.020396,-0.006899l-0.006192,-0.023073l0.000011,-0.000025zm2.143915,-0.512636l0.282556,0.177766l-0.008026,0.039247l-0.322419,-0.049622l0.047885,-0.167391l0.000004,0zm2.252458,-0.523166l0.154309,0.045208l-0.110204,0.165541l-0.130408,-0.002159l0.086303,-0.208601l0,0.000011zm-3.967552,1.205324l0.172442,0.089808l-0.03563,0.120831l-0.111255,-0.069108l-0.025557,-0.14153zm13.900954,-3.68148l-0.000382,0.321597l0.005771,-0.001529l0.02967,0.041508l-0.035326,0.052743l0.002293,0.308507l0.04151,-0.02967l0.188616,0.104022l-0.229909,0.111062l0.001338,0.51277l0.051197,0.029559l0.326565,0.295818l0.022962,-0.098889l0.064281,0.032236l0.093534,0.049127l-0.019033,0.159663l0.130934,0.119478l-0.068008,-0.253815l0.067371,0.043773l0.000573,0.210034l0.009268,0.03461l-0.158532,-0.037893l0.018326,-0.116194l-0.161735,-0.142138l-0.03563,0.120832l0.00172,0.098474l-0.085806,-0.020285l-0.065411,-0.013377l-0.194001,-0.424063l-0.003268,1.441386l0.735895,0.000573l0.000955,-2.442217l-0.059945,0.053157l-0.000191,0.160795l0.000111,0.092707l-0.002255,0.0377l-0.404781,-0.726168l-0.119395,-0.122569l-0.149258,-0.003287l-0.000025,-0.000036zm0.268644,0.125853l0.009459,-0.126185l-0.073857,0.001338l0.06439,0.124943l0.000008,-0.000096zm0.406922,0.595763l-0.012249,0.046561l0.006192,0.023073l0.006077,-0.069634l-0.000019,0zm-12.953114,2.580571l0.295646,0.180443l-0.0276,0.081585l-0.314392,-0.08887l0.046339,-0.173159l0.000008,0zm-0.831768,0.241413l0.074272,0.023375l-0.128115,0.306366l-0.128146,-0.039853l0.181989,-0.289875l0,-0.000013zm13.461432,-3.545228l0.380436,0.31229l0.001911,-0.06232l-0.044409,-0.142661l0.014218,-0.016167l0.032347,0.028428l-0.000573,-0.117326l-0.092707,0.000113l0.019679,0.050367l0.014619,0.008446l0.000382,0.024619l-0.015039,-0.033065l-0.044298,-0.049955l-0.26658,-0.002752l0.000015,-0.000017zm-13.314287,3.586122l0.020396,0.006899l-0.00493,0.050784l0.090777,0.315711l-0.120831,-0.03563l0.030054,-0.280071l-0.01546,-0.057683l-0.000006,-0.00001zm13.747504,-3.584785l-0.004414,0.168108l0.160602,0.160988l-0.085695,0.072422l-0.070463,-0.055309l-0.000764,0.043469l0.01546,0.057684l-0.019981,0.017715l0.004128,2.484258l0.735876,0.000573l-0.002293,-0.308507l-0.21055,-0.116689l-0.112082,-0.118346l0.079292,-0.280912l0.153592,0.088677l-0.119508,-0.215271l0.088868,-0.314392l0.118983,0.09795l0.004414,-0.16811l-0.093121,-0.024508l0.031407,-0.113517l0.058512,0.033782l-0.000955,-0.234648l-0.001147,-1.273278l-0.730124,-0.002198l-0.000032,0.000059zm-15.007023,4.144698l0.391443,0.191861l0.000573,0.117326l-0.344165,-0.223086l-0.041206,-0.038418l-0.006593,-0.047692l-0.000052,0.00001zm2.245387,-0.595477l-0.011122,0.027711l-0.007319,-0.004223l0.018441,-0.023488zm-1.378209,0.394022l0.134328,0.062926l-0.069412,0.179342l-0.160905,-0.0929l0.09599,-0.149369zm0.876485,-0.166845l0.036568,0.021112l-0.107416,0.245177l-0.080039,-0.021831l0.150886,-0.244451l0,-0.000008zm0.05851,0.03378l0.311813,0.194651l-0.045206,0.154309l-0.342101,-0.099991l0.075483,-0.24898l0.000011,0.000011zm12.635702,-3.280559l0.458327,0.464518l0.000764,0.049238l-0.276383,-0.154693l0.276078,0.222781l0.000764,0.302736l-0.011542,0.003096l-0.087352,-0.026054l-0.039469,-0.193447l-0.047883,0.167391l-0.141782,-0.506063l0.051197,0.029559l-0.055833,-0.046865l-0.028953,-0.084979l-0.048823,0.025446l-0.173271,-0.139044l0.124115,-0.113628l0.000048,0.000008zm-13.215872,3.584403l0.220545,0.107828l0.006192,0.023075l0.014218,-0.016167l0.112386,0.050258l-0.036045,0.096212l-0.059643,-0.014925l-0.030912,-0.115365l-0.05644,0.089311l-0.187787,-0.054784l0.017504,-0.165431l-0.000017,-0.000013zm-0.578144,0.334209l0.143187,0.072917l-0.054067,0.144318l-0.13165,-0.076009l0.042531,-0.141226zm12.502699,-3.269666l0.179341,0.069412l-0.076643,-0.078382l-0.102697,0.008962l0,0.000008zm-0.269867,0.146501l0.366944,0.284983l-0.019983,0.017715l-0.393411,-0.222265l0.046448,-0.080452l0.000002,0.000019zm-1.814636,0.541874l0.195932,0.108245l0.028953,0.084979l0.031105,-0.045429l0.106617,0.051803l-0.028013,0.056966l0.002293,0.308507l-0.005771,0.001529l-0.364154,-0.205372l0.033033,-0.361249l0.000006,0.000023zm0.331113,0.566621l-0.038336,-0.212289l-0.009574,0.033478l0.047914,0.178817l-0.000004,-0.000006zm1.349526,-0.893301l0.460964,0.105233l-0.045731,0.036985l-0.516573,0.033316l0.101344,-0.175534l-0.000004,0zm2.749501,-0.514146l0.03657,0.021114l-0.003402,0.056551l-0.03966,-0.032651l0.006478,-0.045015l0.000013,0zm-4.000038,1.084188l0.09199,0.043358l-0.171999,0.281027l-0.005771,0.001529l0.085778,-0.325916l0.000002,0.000002zm0.9869,-0.146973l0.049349,0.091877l0.111669,0.093727l-0.039964,0.035439l-0.071705,-0.129166l-0.07623,-0.053763l0.026882,-0.038114zm2.92703,-0.635913l0.080454,0.046448l-0.015957,0.1712l-0.031934,-0.003803l0.030803,0.02266l-0.027378,0.267l-0.123729,-0.207971l0.087736,-0.295531l0.000006,-0.000004zm-3.234504,1.126363l0.210856,0.048602l-0.012249,0.046561l-0.207053,-0.080534l0.008446,-0.014619l0,-0.00001zm3.055638,-0.478736l0.182849,0.105568l-0.034277,0.28739l-0.151744,-0.150997l0.003172,-0.241967l0,0.000006zm-0.520376,1.35738c-0.126615,0.033639 -0.241279,0.092841 -0.341758,0.178129c-0.002236,0.001987 -0.00214,0.005465 -0.004223,0.007319l0.023486,0.018441l0.061411,0.206117l-0.201703,-0.106699c-0.087935,0.114977 -0.131104,0.24168 -0.131096,0.387525c-0.000008,0.203747 0.08363,0.377531 0.250662,0.520165c0.161163,0.137569 0.364823,0.212519 0.596126,0.217392l-0.000764,-0.648946l-0.008446,0.014619l-0.030388,0.001968l0.016473,-0.053874l0.020396,0.006899l0.003402,-0.056551l-0.005771,0.001529l0.005351,-0.026163l-0.003153,-0.703962c-0.027665,0.000573 -0.058671,0.001911 -0.085394,0.004338l0.003096,0.011542l-0.036154,0.003516l-0.001529,-0.005771c-0.045038,0.005676 -0.08779,0.011256 -0.129994,0.022467l-0.000029,0zm0.299238,-0.036903l-0.003038,0.680878l0.039246,0.008026l-0.026882,0.038114l-0.010396,-0.015765l-0.001147,0.018842l0.007319,0.004223l-0.008446,0.014619l0.000382,0.717033c0.149831,-0.002771 0.287983,-0.033581 0.408412,-0.090889l-0.284409,-0.115445l0.018326,-0.116194l0.024286,-0.278543l0.128862,-0.003612l-0.11774,-0.024093l0.013683,-0.1335l0.280071,0.030054l0.079957,0.275332l0.073937,-0.254751l0.216207,0.022437c0.001147,-0.015899 0.006497,-0.028716 0.006478,-0.045015c0,-0.011084 0.004548,-0.021065 0.003803,-0.031932l-0.188202,-0.079403l0.002675,-0.01309l0.178928,0.044793c-0.019843,-0.167456 -0.105915,-0.309921 -0.252095,-0.433236c-0.06903,-0.058199 -0.141301,-0.104123 -0.222513,-0.138216l-0.281619,-0.035823l-0.016587,-0.038833c-0.024212,-0.001987 -0.044638,-0.005599 -0.069634,-0.006077l0.000136,0.000067zm-0.422935,0.17515l0.11084,0.044489l0.044409,0.142661l0.032953,-0.107748l0.075816,0.029144l-0.035104,0.238164l-0.038529,-0.051501l-0.035135,-0.108052l-0.0207,0.061189l-0.150198,-0.145228l0.015651,-0.103112l-0.000002,-0.000008zm-0.019759,0.203136l0.135155,0.112164l-0.012249,0.046561l-0.072311,0.007013l0.065825,0.038005l-0.0207,0.061187l-0.127731,-0.01523l0.0103,-0.076947l0.072311,-0.007013l-0.067371,-0.043773l0.016778,-0.121962l-0.000008,-0.000006zm-0.321367,0.185029l0.231552,-0.012593l0.027407,0.079212l-0.261229,-0.028923l0.002255,-0.037701l0.000015,0.000006zm0.807976,-0.191766l0.151631,0.05829l-0.052217,0.081998l-0.140399,0.006707l0.040985,-0.146995zm-0.805607,0.246782l0.270498,0.063532l0.003497,0.036156l0.011122,-0.027709l0.110425,0.01987l-0.042531,0.141228l-0.354657,0.014657l0.00172,-0.247738l-0.000075,0.000004zm0.540364,-0.082967l0.030386,-0.001968l-0.006478,0.045015l-0.014619,-0.008446l-0.009268,-0.03461l-0.000021,0.00001zm0.44302,-0.100161l0.188202,0.079403l0.005045,0.041923l-0.186241,-0.049016l-0.023075,0.006192l0.016071,-0.078493l-0.000002,-0.000008zm-0.42519,0.212844l0.014619,0.008446l0.008867,0.009994l-0.026163,-0.005351l0.002675,-0.01309l0.000002,0zm-0.00988,0.101566l0.058097,0.009173l0.021638,0.080756l-0.092707,0.000111l0.012975,-0.09003l-0.000004,-0.00001zm-0.55334,0.172998l0.347338,-0.01888l-0.014925,0.059643l-0.000764,0.043469l-0.001147,0.018842l-0.103527,-0.040266l-0.223946,-0.051279l-0.003096,-0.011542l0.000067,0.000013zm0.535434,-0.032185l0.110013,-0.004758l0.013491,0.027296l0.005351,-0.026163l0.011542,-0.003096l-0.016893,0.029255l-0.050977,0.155855l-0.091575,-0.018747l0.093121,0.024508l-0.014925,0.059643l-0.083131,-0.033367l0.004949,-0.050784l0.019033,-0.159663l0,0.000021zm0.587374,0.300118l0.24856,0.050864c0.026664,-0.02305 0.046064,-0.043165 0.068392,-0.067784l-0.316953,0.016912l0.000002,0.000008z" id="path3141"/>
 </g>
</svg>