<svg width="512" height="512" xmlns="http://www.w3.org/2000/svg">

 <g>
  <title>background</title>
  <rect fill="none" id="canvas_background" height="402" width="582" y="-1" x="-1"/>
 </g>
 <g>
  <title>Layer 1</title>
  <path fill="#ffffff" id="svg_1" d="m512,256c0,-141.488281 -114.496094,-256 -256,-256c-141.488281,0 -256,114.496094 -256,256c0,140.234375 113.539062,256 256,256c141.875,0 256,-115.121094 256,-256zm-256,-226c124.617188,0 226,101.382812 226,226c0,45.585938 -13.558594,89.402344 -38.703125,126.515625c-100.96875,-108.609375 -273.441406,-108.804687 -374.59375,0c-25.144531,-37.113281 -38.703125,-80.929687 -38.703125,-126.515625c0,-124.617188 101.382812,-226 226,-226zm-168.585938,376.5c89.773438,-100.695312 247.421876,-100.671875 337.167969,0c-90.074219,100.773438 -247.054687,100.804688 -337.167969,0zm0,0"/>
  <path fill="#ffffff" id="svg_2" d="m256,271c49.625,0 90,-40.375 90,-90l0,-30c0,-49.625 -40.375,-90 -90,-90s-90,40.375 -90,90l0,30c0,49.625 40.375,90 90,90zm-60,-120c0,-33.085938 26.914062,-60 60,-60s60,26.914062 60,60l0,30c0,33.085938 -26.914062,60 -60,60s-60,-26.914062 -60,-60l0,-30zm0,0"/>
 </g>
</svg>