<svg width="448" height="448" xmlns="http://www.w3.org/2000/svg">

 <g>
  <title>background</title>
  <rect fill="none" id="canvas_background" height="402" width="582" y="-1" x="-1"/>
 </g>
 <g>
  <title>Layer 1</title>
  <path fill="#ffffff" id="svg_1" d="m284.335938,73.703125c5.691406,-17.078125 2.824218,-35.851563 -7.703126,-50.453125c-10.527343,-14.601562 -27.429687,-23.253906 -45.433593,-23.25l-14.398438,0c-18.003906,-0.003906 -34.90625,8.648438 -45.433593,23.25c-10.527344,14.601562 -13.394532,33.375 -7.703126,50.453125l60.335938,181l60.335938,-181zm-108.335938,-9.703125c0,-26.507812 21.492188,-48 48,-48s48,21.492188 48,48s-21.492188,48 -48,48c-26.5,-0.027344 -47.972656,-21.5 -48,-48zm0,0"/>
  <path fill="#ffffff" id="svg_2" d="m256,64c0,17.671875 -14.328125,32 -32,32s-32,-14.328125 -32,-32s14.328125,-32 32,-32s32,14.328125 32,32zm0,0"/>
  <path fill="#ffffff" id="svg_3" d="m88,445.167969l0,-335.257813l-88,-27.078125l0,335.257813l88,27.078125zm0,0"/>
  <path fill="#ffffff" id="svg_4" d="m448,418.089844l0,-335.257813l-88,27.078125l0,335.257813l88,-27.078125zm0,0"/>
  <path fill="#ffffff" id="svg_5" d="m344,110.246094l-50.753906,-12.6875l-61.246094,183.730468l0,136.464844l112,28l0,-335.507812zm0,0"/>
  <path fill="#ffffff" id="svg_6" d="m104,110.246094l0,335.507812l112,-28l0,-136.464844l-61.246094,-183.730468l-50.753906,12.6875zm0,0"/>
 </g>
</svg>